# 3ds Max Wavefront OBJ Exporter v0.99 - (c)2007 guruware
# File Created: 06.11.2024 17:36:01

mtllib arcade.mtl

#
# object Box001
#

v  -15.4413 0.0000 9.7473
v  -15.4413 0.0000 -9.7473
v  15.4413 0.0000 -9.7473
v  15.4413 0.0000 9.7473
v  -15.4413 15.2469 9.7473
v  15.4413 15.2469 9.7473
v  15.4413 15.2469 -9.7473
v  -15.4413 15.2469 -9.7473
v  -16.1859 14.9548 10.4201
v  -16.1859 14.9548 -10.8927
v  16.1945 14.9548 -10.8927
v  16.1945 14.9548 10.4201
v  -16.1859 21.2048 10.4201
v  16.1945 21.2048 10.4201
v  16.1945 21.2048 -10.8927
v  -16.1859 21.2048 -10.8927
# 16 vertices

vn -0.5774 -0.5774 0.5774
vn -0.5774 -0.5774 -0.5774
vn 0.5774 -0.5774 -0.5774
vn 0.5774 -0.5774 0.5774
vn -0.5774 0.5774 0.5774
vn 0.5774 0.5774 0.5774
vn 0.5774 0.5774 -0.5774
vn -0.5774 0.5774 -0.5774
# 8 vertex normals

vt 0.4174 -0.9221 0.0000
vt 0.4174 -0.7971 0.0000
vt 0.2924 -0.7971 0.0000
vt 0.2924 -0.9221 0.0000
vt 0.0207 1.0436 0.0000
vt 1.0207 1.0436 0.0000
vt 1.0207 2.0436 0.0000
vt 0.0207 2.0436 0.0000
vt 0.0369 0.6313 0.0000
vt 0.8456 0.6313 0.0000
vt 0.8456 0.9769 0.0000
vt 0.0369 0.9769 0.0000
vt 2.0599 1.2757 0.0000
vt 2.7866 1.2757 0.0000
vt 2.7866 1.6227 0.0000
vt 2.0599 1.6227 0.0000
vt 1.0341 -1.7158 0.0000
vt 1.8058 -1.7158 0.0000
vt 1.8058 -1.3871 0.0000
vt 1.0341 -1.3871 0.0000
vt -1.9131 0.2733 0.0000
vt -1.2117 0.2733 0.0000
vt -1.2117 0.6198 0.0000
vt -1.9131 0.6198 0.0000
vt 0.1547 1.1058 0.0000
vt 0.1547 2.1058 0.0000
vt -0.8453 2.1058 0.0000
vt -0.8453 1.1058 0.0000
vt 0.2300 0.6235 0.0000
vt 0.3553 0.6235 0.0000
vt 0.3553 0.7487 0.0000
vt 0.2300 0.7487 0.0000
vt 0.2077 0.4629 0.0000
vt 0.8030 0.4629 0.0000
vt 0.8030 0.5744 0.0000
vt 0.2077 0.5744 0.0000
vt 0.0006 0.4685 0.0000
vt 0.1966 0.4685 0.0000
vt 0.1966 0.5687 0.0000
vt 0.0006 0.5687 0.0000
vt -0.0144 0.4694 0.0000
vt 0.2010 0.4694 0.0000
vt 0.2010 0.5784 0.0000
vt -0.0144 0.5784 0.0000
vt 0.8311 0.4696 0.0000
vt 1.1896 0.4696 0.0000
vt 1.1896 0.5676 0.0000
vt 0.8311 0.5676 0.0000
# 48 texture coords

o Box001
g Box001
usemtl 02___Default
s 2
f 1/1/1 2/2/2 3/3/3 4/4/4 
s 4
f 5/5/5 6/6/6 7/7/7 8/8/8 
s 8
f 1/9/1 4/10/4 6/11/6 5/12/5 
s 16
f 4/13/4 3/14/3 7/15/7 6/16/6 
s 32
f 3/17/3 2/18/2 8/19/8 7/20/7 
s 64
f 2/21/2 1/22/1 5/23/5 8/24/8 
usemtl 01___Default
s 2
f 9/25/1 10/26/2 11/27/3 12/28/4 
s 4
f 13/29/5 14/30/6 15/31/7 16/32/8 
s 8
f 9/33/1 12/34/4 14/35/6 13/36/5 
s 16
f 12/37/4 11/38/3 15/39/7 14/40/6 
s 32
f 11/41/3 10/42/2 16/43/8 15/44/7 
s 64
f 10/45/2 9/46/1 13/47/5 16/48/8 
# 12 polygons

