# 3ds Max Wavefront OBJ Exporter v0.99 - (c)2007 guruware
# File Created: 03.11.2024 13:39:44

mtllib Bender_BrazoIzqSup.mtl

#
# object brazo2_2
#

v  -0.0794 -0.1585 -0.0641
v  -0.0676 -0.1601 0.0650
v  -0.0794 -0.1585 0.0641
v  -0.0746 -0.0684 0.1570
v  -0.0863 -0.0681 0.1547
v  -0.0844 0.0613 0.1570
v  -0.0960 0.0597 0.1547
v  -0.0914 0.1529 0.0650
v  -0.1028 0.1501 0.0641
v  -0.0914 0.1529 -0.0650
v  -0.1028 0.1501 -0.0641
v  -0.0844 0.0613 -0.1570
v  -0.0960 0.0597 -0.1547
v  -0.1158 -0.1371 0.0342
v  -0.1496 -0.1123 0.0825
v  -0.1209 -0.1510 0.0342
v  -0.0093 -0.0636 -0.1580
v  0.0095 -0.1517 -0.0641
v  -0.0023 -0.1559 -0.0654
v  -0.1094 0.1056 0.0459
v  -0.1044 0.0408 0.1108
v  -0.3079 -0.2078 -0.0342
v  -0.3177 -0.4482 -0.0825
v  -0.3647 -0.4369 -0.0342
v  0.0026 -0.0613 -0.1547
v  0.0095 -0.1517 0.0641
v  -0.0414 -0.0697 -0.1668
v  -0.0676 -0.1601 -0.0650
v  -0.0746 -0.0684 -0.1570
v  -0.0071 0.0665 -0.1547
v  -0.0262 0.1592 -0.0654
v  -0.0519 0.0681 -0.1668
v  -0.0593 0.1655 -0.0691
v  -0.0262 0.1592 0.0654
v  -0.0593 0.1655 0.0691
v  -0.0192 0.0669 0.1580
v  -0.0519 0.0681 0.1668
v  -0.0093 -0.0636 0.1580
v  -0.0414 -0.0697 0.1668
v  -0.0023 -0.1559 0.0654
v  -0.0340 -0.1672 0.0691
v  -0.0340 -0.1672 -0.0691
v  -0.1716 -0.2879 0.0342
v  -0.0926 -0.1154 -0.0459
v  -0.1094 0.1056 -0.0459
v  -0.0975 -0.0507 0.1108
v  -0.0863 -0.0681 -0.1547
v  -0.0975 -0.0507 -0.1108
v  -0.2101 -0.0017 0.0342
v  -0.1044 0.0408 -0.1108
v  -0.0926 -0.1154 0.0459
v  -0.1900 -0.0575 -0.0825
v  -0.1434 -0.0975 -0.0825
v  -0.1496 -0.1123 -0.0825
v  -0.1825 -0.0413 -0.0825
v  -0.1434 -0.0975 0.0825
v  -0.2101 -0.0017 -0.0342
v  -0.1825 -0.0413 0.0825
v  -0.1158 -0.1371 -0.0342
v  -0.3031 -0.1881 -0.0342
v  -0.2688 -0.2356 -0.0825
v  -0.1742 -0.3027 -0.0342
v  -0.2101 -0.2586 -0.0825
v  -0.1716 -0.2879 -0.0342
v  -0.1900 -0.0575 0.0825
v  -0.2101 -0.2586 0.0825
v  -0.2187 -0.0188 -0.0342
v  -0.1209 -0.1510 -0.0342
v  -0.2187 -0.0188 0.0342
v  -0.2646 -0.2173 0.0825
v  -0.3031 -0.1881 0.0342
v  -0.2646 -0.2173 -0.0825
v  -0.2688 -0.2356 0.0825
v  -0.2052 -0.4898 0.0340
v  -0.2042 -0.4754 -0.0342
v  -0.2042 -0.4754 0.0342
v  -0.2133 -0.2749 -0.0825
v  -0.2512 -0.4641 -0.0825
v  -0.3079 -0.2078 0.0342
v  -0.3177 -0.4482 0.0825
v  -0.1742 -0.3027 0.0342
v  -0.3647 -0.4369 0.0342
v  -0.2133 -0.2749 0.0825
v  -0.3653 -0.4530 0.0340
v  -0.3653 -0.4530 -0.0340
v  0.0026 -0.0613 0.1547
v  -0.0071 0.0665 0.1547
v  -0.0139 0.1568 0.0641
v  -0.0139 0.1568 -0.0641
v  -0.0192 0.0669 -0.1580
v  -0.2512 -0.4641 0.0825
v  -0.2521 -0.4790 -0.0822
v  -0.2052 -0.4898 -0.0340
v  -0.3184 -0.4638 0.0822
v  -0.2521 -0.4790 0.0822
v  -0.3184 -0.4638 -0.0822
# 96 vertices

vn -0.5988 -0.7462 -0.2909
vn -0.1971 -0.9088 0.3678
vn -0.5988 -0.7462 0.2909
vn -0.2333 -0.3908 0.8904
vn -0.6255 -0.3362 0.7041
vn -0.2847 0.3464 0.8938
vn -0.6635 0.2468 0.7063
vn -0.3211 0.8712 0.3713
vn -0.6905 0.6612 0.2932
vn -0.3211 0.8712 -0.3713
vn -0.6905 0.6612 -0.2932
vn -0.2847 0.3464 -0.8938
vn -0.6635 0.2468 -0.7063
vn 0.7533 -0.5543 0.3538
vn 0.3877 -0.1522 0.9091
vn 0.8749 -0.3321 0.3526
vn 0.3087 -0.3448 -0.8865
vn 0.7794 -0.5701 -0.2599
vn 0.3480 -0.8626 -0.3672
vn -0.9303 0.3278 0.1646
vn -0.8833 0.1338 0.4492
vn -0.9035 0.2205 -0.3674
vn -0.4040 0.0464 -0.9136
vn -0.9205 0.1280 -0.3692
vn 0.7515 -0.2036 -0.6275
vn 0.7794 -0.5701 0.2599
vn 0.0174 -0.3817 -0.9241
vn -0.1971 -0.9088 -0.3678
vn -0.2333 -0.3908 -0.8904
vn 0.7122 0.3147 -0.6275
vn 0.2139 0.9052 -0.3672
vn -0.0430 0.3812 -0.9235
vn -0.0857 0.9200 -0.3823
vn 0.2139 0.9052 0.3672
vn -0.0857 0.9200 0.3823
vn 0.2532 0.3874 0.8865
vn -0.0430 0.3812 0.9235
vn 0.3087 -0.3448 0.8865
vn 0.0174 -0.3817 0.9241
vn 0.3480 -0.8626 0.3672
vn 0.0602 -0.9218 0.3830
vn 0.0602 -0.9218 -0.3830
vn 0.8982 -0.2424 0.3666
vn -0.5075 -0.7552 -0.4148
vn -0.9303 0.3278 -0.1646
vn -0.7643 -0.2389 0.5990
vn -0.6255 -0.3362 -0.7041
vn -0.7643 -0.2389 -0.5990
vn -0.7869 0.5274 0.3202
vn -0.8833 0.1338 -0.4492
vn -0.5075 -0.7552 0.4148
vn -0.3642 0.1759 -0.9145
vn 0.1526 -0.3032 -0.9406
vn 0.3877 -0.1522 -0.9091
vn -0.4935 0.2052 -0.8452
vn 0.1526 -0.3032 0.9406
vn -0.7869 0.5274 -0.3202
vn -0.4935 0.2052 0.8452
vn 0.7533 -0.5543 -0.3538
vn -0.8758 0.3241 -0.3576
vn -0.3852 0.0921 -0.9182
vn 0.9161 -0.1646 -0.3657
vn 0.3674 -0.1117 -0.9233
vn 0.8982 -0.2424 -0.3666
vn -0.3642 0.1759 0.9145
vn 0.3674 -0.1117 0.9233
vn -0.8379 0.4123 -0.3576
vn 0.8749 -0.3321 -0.3526
vn -0.8379 0.4123 0.3576
vn -0.3992 0.1356 0.9068
vn -0.8758 0.3241 0.3576
vn -0.3992 0.1356 -0.9068
vn -0.3852 0.0921 0.9182
vn 0.9223 -0.0669 0.3807
vn 0.9173 -0.1145 -0.3814
vn 0.9173 -0.1145 0.3814
vn 0.3950 -0.0741 -0.9157
vn 0.3692 -0.0568 -0.9276
vn -0.9036 0.2205 0.3674
vn -0.4040 0.0464 0.9136
vn 0.9161 -0.1646 0.3657
vn -0.9205 0.1280 0.3692
vn 0.3950 -0.0741 0.9157
vn -0.9250 0.0301 0.3788
vn -0.9250 0.0301 -0.3788
vn 0.7515 -0.2036 0.6275
vn 0.7122 0.3147 0.6275
vn 0.6844 0.6812 0.2599
vn 0.6844 0.6812 -0.2599
vn 0.2532 0.3874 -0.8865
vn 0.3692 -0.0568 0.9276
vn 0.3817 -0.0416 -0.9234
vn 0.9223 -0.0669 -0.3807
vn -0.3882 -0.0012 0.9216
vn 0.3817 -0.0416 0.9234
vn -0.3882 -0.0012 -0.9216
# 96 vertex normals

vt 0.9147 0.9690 0.0000
vt 0.8809 0.9564 0.0000
vt 0.8809 0.9690 0.0000
vt 0.8471 0.9564 0.0000
vt 0.8471 0.9690 0.0000
vt 0.8133 0.9564 0.0000
vt 0.8133 0.9690 0.0000
vt 0.7795 0.9564 0.0000
vt 0.7795 0.9690 0.0000
vt 0.7457 0.9564 0.0000
vt 0.7457 0.9690 0.0000
vt 0.7119 0.9564 0.0000
vt 0.7119 0.9690 0.0000
vt 0.9484 0.8521 0.0000
vt 0.9147 0.8338 0.0000
vt 0.9147 0.8521 0.0000
vt 0.9226 0.8262 0.0000
vt 0.9577 0.7414 0.0000
vt 0.9577 0.7911 0.0000
vt 0.9484 0.9014 0.0000
vt 0.9147 0.9564 0.0000
vt 0.9484 0.9564 0.0000
vt 0.7119 0.8338 0.0000
vt 0.9484 0.8338 0.0000
vt 0.7457 0.8521 0.0000
vt 0.7119 0.9014 0.0000
vt 0.7457 0.9014 0.0000
vt 0.7795 0.8521 0.0000
vt 0.7795 0.9014 0.0000
vt 0.8133 0.8521 0.0000
vt 0.8133 0.9014 0.0000
vt 0.8471 0.8521 0.0000
vt 0.8471 0.9014 0.0000
vt 0.8809 0.8521 0.0000
vt 0.8809 0.9014 0.0000
vt 0.9147 0.9014 0.0000
vt 0.9484 0.9690 0.0000
vt 0.8809 0.8338 0.0000
vt 0.8471 0.8338 0.0000
vt 0.8133 0.8338 0.0000
vt 0.7795 0.8338 0.0000
vt 0.7457 0.8338 0.0000
vt 0.7119 0.8521 0.0000
vt 0.8729 0.8262 0.0000
vt 0.8378 0.7911 0.0000
vt 0.8378 0.7414 0.0000
vt 0.8729 0.7063 0.0000
vt 0.9226 0.7063 0.0000
# 48 texture coords

o brazo2_2
g brazo2_2
usemtl Material_010
s off
f 1/1/1 2/2/2 3/3/3 
f 3/3/3 4/4/4 5/5/5 
f 5/5/5 6/6/6 7/7/7 
f 7/7/7 8/8/8 9/9/9 
f 9/9/9 10/10/10 11/11/11 
f 11/11/11 12/12/12 13/13/13 
f 14/3/14 15/5/15 16/3/16 
f 17/14/17 18/15/18 19/16/19 
usemtl Material_006
f 7/7/7 20/9/20 21/7/21 
f 22/11/22 23/13/23 24/11/24 
f 25/17/25 26/18/26 18/19/18 
f 27/20/27 28/21/28 29/22/29 
usemtl Material_010
f 17/14/17 30/23/30 25/24/25 
usemtl Material_006
f 31/25/31 32/26/32 33/27/33 
f 34/28/34 33/27/33 35/29/35 
f 36/30/36 35/29/35 37/31/37 
f 38/32/38 37/31/37 39/33/39 
f 40/34/40 39/33/39 41/35/41 
f 19/16/19 41/35/41 42/36/42 
f 15/5/15 43/3/43 16/3/16 
f 3/3/3 44/1/44 1/1/1 
f 9/9/9 45/11/45 20/9/20 
f 5/5/5 21/7/21 46/5/46 
f 47/37/47 44/1/44 48/37/48 
f 45/11/45 49/9/49 20/9/20 
f 11/11/11 50/13/50 45/11/45 
f 47/37/47 50/13/50 13/13/13 
f 46/5/46 14/3/14 51/3/51 
usemtl Material_010
f 52/13/52 53/37/53 54/37/54 
usemtl Material_006
f 48/37/48 55/13/55 50/13/50 
f 21/7/21 56/5/56 46/5/46 
f 50/13/50 57/11/57 45/11/45 
f 44/1/44 53/37/53 48/37/48 
f 20/9/20 58/7/58 21/7/21 
f 44/1/44 14/3/14 59/1/59 
usemtl Material_010
f 60/11/60 61/13/61 22/11/22 
f 62/1/62 63/37/63 64/1/64 
usemtl Material_006
f 65/7/65 66/5/66 15/5/15 
usemtl Material_010
f 57/11/57 52/13/52 67/11/67 
usemtl Material_006
f 68/1/68 63/37/63 54/37/54 
f 69/9/69 70/7/70 65/7/65 
f 16/3/16 64/1/64 68/1/68 
f 69/9/69 60/11/60 71/9/71 
f 52/13/52 63/37/63 72/13/72 
usemtl Material_010
f 73/7/73 66/5/66 70/7/70 
f 74/3/74 75/1/75 76/3/76 
f 72/13/72 77/37/77 61/13/61 
usemtl Material_006
f 62/1/62 78/37/78 77/37/77 
f 79/9/79 80/7/80 73/7/73 
f 77/37/77 23/13/23 61/13/61 
f 81/3/81 75/1/75 62/1/62 
f 22/11/22 82/9/82 79/9/79 
f 83/5/83 76/3/76 81/3/81 
usemtl Material_010
f 84/9/84 80/7/80 82/9/82 
f 82/9/82 85/11/85 84/9/84 
f 19/16/19 26/38/26 40/34/40 
f 40/34/40 86/39/86 38/32/38 
f 38/32/38 87/40/87 36/30/36 
f 36/30/36 88/41/88 34/28/34 
f 34/28/34 89/42/89 31/25/31 
f 31/25/31 30/23/30 90/43/90 
usemtl Material_006
f 32/26/32 17/14/17 27/20/27 
f 32/26/32 29/22/29 12/12/12 
usemtl Material_010
f 47/37/47 28/21/28 1/1/1 
usemtl Material_006
f 5/5/5 51/3/51 3/3/3 
f 33/27/33 12/12/12 10/10/10 
f 35/29/35 10/10/10 8/8/8 
f 37/31/37 8/8/8 6/6/6 
f 39/33/39 6/6/6 4/4/4 
f 41/35/41 4/4/4 2/2/2 
f 42/36/42 2/2/2 28/21/28 
f 83/5/83 80/7/80 91/5/91 
usemtl Material_010
f 49/9/49 67/11/67 69/9/69 
f 59/1/59 16/3/16 68/1/68 
f 58/7/58 69/9/69 65/7/65 
usemtl Material_006
f 52/13/52 60/11/60 67/11/67 
usemtl Material_010
f 53/37/53 68/1/68 54/37/54 
f 56/5/56 65/7/65 15/5/15 
f 70/7/70 79/9/79 73/7/73 
f 92/37/92 23/13/23 78/37/78 
f 43/3/43 83/5/83 81/3/81 
f 71/9/71 22/11/22 79/9/79 
f 64/1/64 81/3/81 62/1/62 
f 78/37/78 93/1/93 92/37/92 
f 91/5/91 94/7/94 95/5/95 
f 24/11/24 96/13/96 85/11/85 
f 76/3/76 95/5/95 74/3/74 
usemtl Material_006
f 17/14/17 42/36/42 27/20/27 
usemtl Material_010
f 47/37/47 12/12/12 29/22/29 
f 1/1/1 28/21/28 2/2/2 
f 3/3/3 2/2/2 4/4/4 
f 5/5/5 4/4/4 6/6/6 
f 7/7/7 6/6/6 8/8/8 
f 9/9/9 8/8/8 10/10/10 
f 11/11/11 10/10/10 12/12/12 
f 14/3/14 56/5/56 15/5/15 
f 17/14/17 25/24/25 18/15/18 
usemtl Material_006
f 7/7/7 9/9/9 20/9/20 
f 22/11/22 61/13/61 23/13/23 
f 25/17/25 30/44/30 89/45/89 
f 25/17/25 89/45/89 88/46/88 
f 25/17/25 88/46/88 87/47/87 
f 25/17/25 87/47/87 86/48/86 
f 25/17/25 86/48/86 26/18/26 
f 27/20/27 42/36/42 28/21/28 
usemtl Material_010
f 17/14/17 90/43/90 30/23/30 
usemtl Material_006
f 31/25/31 90/43/90 32/26/32 
f 34/28/34 31/25/31 33/27/33 
f 36/30/36 34/28/34 35/29/35 
f 38/32/38 36/30/36 37/31/37 
f 40/34/40 38/32/38 39/33/39 
f 19/16/19 40/34/40 41/35/41 
f 15/5/15 66/5/66 43/3/43 
f 3/3/3 51/3/51 44/1/44 
f 9/9/9 11/11/11 45/11/45 
f 5/5/5 7/7/7 21/7/21 
f 47/37/47 1/1/1 44/1/44 
f 45/11/45 57/11/57 49/9/49 
f 11/11/11 13/13/13 50/13/50 
f 47/37/47 48/37/48 50/13/50 
f 46/5/46 56/5/56 14/3/14 
usemtl Material_010
f 52/13/52 55/13/55 53/37/53 
usemtl Material_006
f 48/37/48 53/37/53 55/13/55 
f 21/7/21 58/7/58 56/5/56 
f 50/13/50 55/13/55 57/11/57 
f 44/1/44 59/1/59 53/37/53 
f 20/9/20 49/9/49 58/7/58 
f 44/1/44 51/3/51 14/3/14 
usemtl Material_010
f 60/11/60 72/13/72 61/13/61 
f 62/1/62 77/37/77 63/37/63 
usemtl Material_006
f 65/7/65 70/7/70 66/5/66 
usemtl Material_010
f 57/11/57 55/13/55 52/13/52 
usemtl Material_006
f 68/1/68 64/1/64 63/37/63 
f 69/9/69 71/9/71 70/7/70 
f 16/3/16 43/3/43 64/1/64 
f 69/9/69 67/11/67 60/11/60 
f 52/13/52 54/37/54 63/37/63 
usemtl Material_010
f 73/7/73 83/5/83 66/5/66 
f 74/3/74 93/1/93 75/1/75 
f 72/13/72 63/37/63 77/37/77 
usemtl Material_006
f 62/1/62 75/1/75 78/37/78 
f 79/9/79 82/9/82 80/7/80 
f 77/37/77 78/37/78 23/13/23 
f 81/3/81 76/3/76 75/1/75 
f 22/11/22 24/11/24 82/9/82 
f 83/5/83 91/5/91 76/3/76 
usemtl Material_010
f 84/9/84 94/7/94 80/7/80 
f 82/9/82 24/11/24 85/11/85 
f 19/16/19 18/15/18 26/38/26 
f 40/34/40 26/38/26 86/39/86 
f 38/32/38 86/39/86 87/40/87 
f 36/30/36 87/40/87 88/41/88 
f 34/28/34 88/41/88 89/42/89 
f 31/25/31 89/42/89 30/23/30 
usemtl Material_006
f 32/26/32 90/43/90 17/14/17 
f 32/26/32 27/20/27 29/22/29 
usemtl Material_010
f 47/37/47 29/22/29 28/21/28 
usemtl Material_006
f 5/5/5 46/5/46 51/3/51 
f 33/27/33 32/26/32 12/12/12 
f 35/29/35 33/27/33 10/10/10 
f 37/31/37 35/29/35 8/8/8 
f 39/33/39 37/31/37 6/6/6 
f 41/35/41 39/33/39 4/4/4 
f 42/36/42 41/35/41 2/2/2 
f 83/5/83 73/7/73 80/7/80 
usemtl Material_010
f 49/9/49 57/11/57 67/11/67 
f 59/1/59 14/3/14 16/3/16 
f 58/7/58 49/9/49 69/9/69 
usemtl Material_006
f 52/13/52 72/13/72 60/11/60 
usemtl Material_010
f 53/37/53 59/1/59 68/1/68 
f 56/5/56 58/7/58 65/7/65 
f 70/7/70 71/9/71 79/9/79 
f 92/37/92 96/13/96 23/13/23 
f 43/3/43 66/5/66 83/5/83 
f 71/9/71 60/11/60 22/11/22 
f 64/1/64 43/3/43 81/3/81 
f 78/37/78 75/1/75 93/1/93 
f 91/5/91 80/7/80 94/7/94 
f 24/11/24 23/13/23 96/13/96 
f 76/3/76 91/5/91 95/5/95 
usemtl Material_006
f 17/14/17 19/16/19 42/36/42 
usemtl Material_010
f 47/37/47 13/13/13 12/12/12 
# 0 polygons - 182 triangles

