# 3ds Max Wavefront OBJ Exporter v0.99 - (c)2007 guruware
# File Created: 03.11.2024 11:56:11

mtllib Bender_torzo.mtl

#
# object Torzo
#

v  0.1105 0.6864 -0.2668
v  0.3497 0.5444 -0.3497
v  0.1893 0.5444 -0.4569
v  0.2042 0.6864 -0.2042
v  0.4569 0.5444 -0.1893
v  0.2668 0.6864 -0.1105
v  0.4946 0.5444 -0.0000
v  0.2887 0.6864 -0.0000
v  0.4569 0.5444 0.1893
v  0.2668 0.6864 0.1105
v  0.3497 0.5444 0.3497
v  0.2042 0.6864 0.2042
v  0.1893 0.5444 0.4569
v  0.1105 0.6864 0.2668
v  -0.0000 0.5444 0.4946
v  -0.0000 0.6864 0.2887
v  -0.1893 0.5444 0.4569
v  -0.1105 0.6864 0.2668
v  -0.3497 0.5444 0.3497
v  -0.2042 0.6864 0.2042
v  -0.4569 0.5444 0.1893
v  -0.2668 0.6864 0.1105
v  -0.4946 0.5444 -0.0000
v  -0.2887 0.6864 -0.0000
v  -0.4569 0.5444 -0.1893
v  -0.2668 0.6864 -0.1105
v  -0.3497 0.5444 -0.3497
v  -0.2042 0.6864 -0.2042
v  -0.1893 0.5444 -0.4569
v  -0.1105 0.6864 -0.2668
v  -0.0000 0.5444 -0.4946
v  0.0000 0.6930 -0.0000
v  -0.0000 -0.4715 -0.4466
v  0.1943 0.5353 -0.4691
v  0.1709 -0.4715 -0.4126
v  -0.0000 0.5353 -0.5078
v  -0.3152 -0.4849 -0.3153
v  -0.1706 -0.4849 -0.4119
v  0.0000 -0.4928 -0.0000
v  0.0000 0.6864 -0.2887
v  -0.4458 -0.4849 -0.0000
v  -0.4119 -0.4849 -0.1706
v  0.4119 -0.4849 0.1706
v  0.3152 -0.4849 0.3152
v  0.1706 -0.4849 0.4119
v  -0.0000 -0.4849 0.4458
v  0.4119 -0.4849 -0.1706
v  0.4458 -0.4849 -0.0000
v  -0.1706 -0.4849 0.4119
v  -0.3153 -0.4849 0.3152
v  -0.0000 -0.4849 -0.4458
v  0.1706 -0.4849 -0.4119
v  -0.4119 -0.4849 0.1706
v  0.3152 -0.4849 -0.3152
v  -0.1709 -0.4715 -0.4126
v  -0.3158 -0.4715 -0.3158
v  -0.1943 0.5353 -0.4691
v  -0.4126 -0.4715 -0.1709
v  -0.3591 0.5353 -0.3591
v  -0.4466 -0.4715 -0.0000
v  -0.4691 0.5353 -0.1943
v  -0.4126 -0.4715 0.1709
v  -0.5078 0.5353 -0.0000
v  -0.3158 -0.4715 0.3158
v  -0.4691 0.5353 0.1943
v  -0.1709 -0.4715 0.4126
v  -0.3591 0.5353 0.3591
v  -0.0000 -0.4715 0.4466
v  -0.1943 0.5353 0.4691
v  0.1709 -0.4715 0.4126
v  -0.0000 0.5353 0.5078
v  0.3158 -0.4715 0.3158
v  0.1943 0.5353 0.4691
v  0.4126 -0.4715 0.1709
v  0.3591 0.5353 0.3591
v  0.4466 -0.4715 -0.0000
v  0.4691 0.5353 0.1943
v  0.4126 -0.4715 -0.1709
v  0.5078 0.5353 -0.0000
v  0.3158 -0.4715 -0.3158
v  0.4691 0.5353 -0.1943
v  0.3591 0.5353 -0.3591
# 82 vertices

vn 0.1301 0.9405 -0.3140
vn 0.4016 0.8230 -0.4016
vn 0.2174 0.8230 -0.5248
vn 0.2404 0.9404 -0.2404
vn 0.5248 0.8230 -0.2174
vn 0.3140 0.9405 -0.1301
vn 0.5680 0.8230 -0.0000
vn 0.3399 0.9405 -0.0000
vn 0.5248 0.8230 0.2174
vn 0.3140 0.9405 0.1301
vn 0.4016 0.8230 0.4016
vn 0.2404 0.9404 0.2404
vn 0.2174 0.8230 0.5248
vn 0.1301 0.9405 0.3140
vn 0.0000 0.8230 0.5680
vn 0.0000 0.9405 0.3399
vn -0.2174 0.8230 0.5248
vn -0.1301 0.9405 0.3140
vn -0.4016 0.8230 0.4016
vn -0.2404 0.9404 0.2404
vn -0.5248 0.8230 0.2174
vn -0.3140 0.9405 0.1301
vn -0.5680 0.8230 -0.0000
vn -0.3399 0.9405 -0.0000
vn -0.5248 0.8230 -0.2174
vn -0.3140 0.9405 -0.1301
vn -0.4016 0.8230 -0.4016
vn -0.2404 0.9404 -0.2404
vn -0.2174 0.8230 -0.5248
vn -0.1301 0.9405 -0.3140
vn 0.0000 0.8230 -0.5680
vn 0.0000 1.0000 -0.0000
vn 0.0000 -0.0606 -0.9982
vn 0.3481 0.4153 -0.8404
vn 0.3820 -0.0606 -0.9222
vn 0.0000 0.4153 -0.9097
vn -0.5170 -0.6822 -0.5170
vn -0.2798 -0.6822 -0.6755
vn 0.0000 -1.0000 -0.0000
vn 0.0000 0.9405 -0.3399
vn -0.7312 -0.6822 -0.0000
vn -0.6755 -0.6822 -0.2798
vn 0.6755 -0.6822 0.2798
vn 0.5170 -0.6822 0.5170
vn 0.2798 -0.6822 0.6755
vn 0.0000 -0.6822 0.7312
vn 0.6755 -0.6822 -0.2798
vn 0.7312 -0.6822 -0.0000
vn -0.2798 -0.6822 0.6755
vn -0.5170 -0.6822 0.5170
vn 0.0000 -0.6822 -0.7312
vn 0.2798 -0.6822 -0.6755
vn -0.6755 -0.6822 0.2798
vn 0.5170 -0.6822 -0.5170
vn -0.3820 -0.0606 -0.9222
vn -0.7058 -0.0606 -0.7058
vn -0.3481 0.4153 -0.8404
vn -0.9222 -0.0606 -0.3820
vn -0.6432 0.4153 -0.6432
vn -0.9982 -0.0606 -0.0000
vn -0.8404 0.4153 -0.3481
vn -0.9222 -0.0606 0.3820
vn -0.9097 0.4153 -0.0000
vn -0.7058 -0.0606 0.7058
vn -0.8404 0.4153 0.3481
vn -0.3820 -0.0606 0.9222
vn -0.6432 0.4153 0.6432
vn 0.0000 -0.0606 0.9982
vn -0.3481 0.4153 0.8404
vn 0.3820 -0.0606 0.9222
vn 0.0000 0.4153 0.9097
vn 0.7058 -0.0606 0.7058
vn 0.3481 0.4153 0.8404
vn 0.9222 -0.0606 0.3820
vn 0.6432 0.4153 0.6432
vn 0.9982 -0.0606 -0.0000
vn 0.8404 0.4153 0.3481
vn 0.9222 -0.0606 -0.3820
vn 0.9097 0.4153 -0.0000
vn 0.7058 -0.0606 -0.7058
vn 0.8404 0.4153 -0.3481
vn 0.6432 0.4153 -0.6432
# 82 vertex normals

vt 0.9381 0.1758 0.0000
vt 0.9182 0.1565 0.0000
vt 0.9381 0.1565 0.0000
vt 0.9182 0.1758 0.0000
vt 0.8982 0.1565 0.0000
vt 0.8982 0.1758 0.0000
vt 0.8783 0.1565 0.0000
vt 0.8783 0.1758 0.0000
vt 0.8583 0.1565 0.0000
vt 0.8583 0.1758 0.0000
vt 0.8383 0.1565 0.0000
vt 0.8383 0.1758 0.0000
vt 0.8184 0.1565 0.0000
vt 0.8184 0.1758 0.0000
vt 0.7984 0.1565 0.0000
vt 0.7984 0.1758 0.0000
vt 0.7785 0.1565 0.0000
vt 0.7785 0.1758 0.0000
vt 0.7585 0.1565 0.0000
vt 0.7585 0.1758 0.0000
vt 0.7386 0.1565 0.0000
vt 0.7386 0.1758 0.0000
vt 0.7186 0.1565 0.0000
vt 0.7186 0.1758 0.0000
vt 0.6986 0.1565 0.0000
vt 0.6986 0.1758 0.0000
vt 0.6787 0.1565 0.0000
vt 0.6787 0.1758 0.0000
vt 0.6587 0.1565 0.0000
vt 0.6587 0.1758 0.0000
vt 0.6388 0.1565 0.0000
vt 0.9581 0.0180 0.0000
vt 0.9381 0.1552 0.0000
vt 0.9381 0.0180 0.0000
vt 0.9581 0.1552 0.0000
vt 0.6787 0.0162 0.0000
vt 0.6587 0.0162 0.0000
vt 0.6388 0.1758 0.0000
vt 0.7186 0.0162 0.0000
vt 0.6986 0.0162 0.0000
vt 0.8583 0.0162 0.0000
vt 0.8383 0.0162 0.0000
vt 0.8184 0.0162 0.0000
vt 0.7984 0.0162 0.0000
vt 0.8982 0.0162 0.0000
vt 0.8783 0.0162 0.0000
vt 0.7785 0.0162 0.0000
vt 0.7585 0.0162 0.0000
vt 0.9581 0.0162 0.0000
vt 0.9381 0.0162 0.0000
vt 0.7386 0.0162 0.0000
vt 0.9182 0.0162 0.0000
vt 0.6388 0.0162 0.0000
vt 0.6587 0.0180 0.0000
vt 0.6388 0.1552 0.0000
vt 0.6388 0.0180 0.0000
vt 0.6787 0.0180 0.0000
vt 0.6587 0.1552 0.0000
vt 0.6986 0.0180 0.0000
vt 0.6787 0.1552 0.0000
vt 0.7186 0.0180 0.0000
vt 0.6986 0.1552 0.0000
vt 0.7386 0.0180 0.0000
vt 0.7186 0.1552 0.0000
vt 0.7585 0.0180 0.0000
vt 0.7386 0.1552 0.0000
vt 0.7785 0.0180 0.0000
vt 0.7585 0.1552 0.0000
vt 0.7984 0.0180 0.0000
vt 0.7785 0.1552 0.0000
vt 0.8184 0.0180 0.0000
vt 0.7984 0.1552 0.0000
vt 0.8383 0.0180 0.0000
vt 0.8184 0.1552 0.0000
vt 0.8583 0.0180 0.0000
vt 0.8383 0.1552 0.0000
vt 0.8783 0.0180 0.0000
vt 0.8583 0.1552 0.0000
vt 0.8982 0.0180 0.0000
vt 0.8783 0.1552 0.0000
vt 0.9182 0.0180 0.0000
vt 0.8982 0.1552 0.0000
vt 0.9182 0.1552 0.0000
vt 0.9581 0.1758 0.0000
vt 0.9581 0.1565 0.0000
# 85 texture coords

o Torzo
g Torzo
usemtl Material_001
s off
f 1/1/1 2/2/2 3/3/3 
f 4/4/4 5/5/5 2/2/2 
f 6/6/6 7/7/7 5/5/5 
f 8/8/8 9/9/9 7/7/7 
f 10/10/10 11/11/11 9/9/9 
f 12/12/12 13/13/13 11/11/11 
f 14/14/14 15/15/15 13/13/13 
f 16/16/16 17/17/17 15/15/15 
f 18/18/18 19/19/19 17/17/17 
f 20/20/20 21/21/21 19/19/19 
f 22/22/22 23/23/23 21/21/21 
f 24/24/24 25/25/25 23/23/23 
f 26/26/26 27/27/27 25/25/25 
f 28/28/28 29/29/29 27/27/27 
f 30/30/30 31/31/31 29/29/29 
f 18/18/18 16/16/16 32/18/32 
f 33/32/33 34/33/34 35/34/35 
usemtl Material_009
f 36/35/36 3/3/3 34/33/34 
usemtl Material_001
f 37/36/37 38/37/38 39/36/39 
f 24/24/24 32/26/32 26/26/26 
f 1/1/1 32/4/32 4/4/4 
f 14/14/14 12/12/12 32/14/32 
f 20/20/20 32/22/32 22/22/22 
f 40/38/40 30/30/30 32/38/32 
f 10/10/10 8/8/8 32/10/32 
f 28/28/28 26/26/26 32/28/32 
f 6/6/6 4/4/4 32/6/32 
f 24/24/24 22/22/22 32/24/32 
f 20/20/20 18/18/18 32/20/32 
f 6/6/6 32/8/32 8/8/8 
f 16/16/16 14/14/14 32/16/32 
f 12/12/12 10/10/10 32/12/32 
f 30/30/30 28/28/28 32/30/32 
f 41/39/41 42/40/42 39/39/39 
f 43/41/43 44/42/44 39/41/39 
f 44/42/44 45/43/45 39/42/39 
f 45/43/45 46/44/46 39/43/39 
f 47/45/47 48/46/48 39/45/39 
f 49/47/49 50/48/50 39/47/39 
f 51/49/51 52/50/52 39/49/39 
f 53/51/53 41/39/41 39/51/39 
f 54/52/54 47/45/47 39/52/39 
f 42/40/42 37/36/37 39/40/39 
f 46/44/46 49/47/49 39/44/39 
f 38/37/38 51/53/51 39/37/39 
f 50/48/50 53/51/53 39/48/39 
f 52/50/52 54/52/54 39/50/39 
f 48/46/48 43/41/43 39/46/39 
f 55/54/55 36/55/36 33/56/33 
f 56/57/56 57/58/57 55/54/55 
f 58/59/58 59/60/59 56/57/56 
f 60/61/60 61/62/61 58/59/58 
f 62/63/62 63/64/63 60/61/60 
f 64/65/64 65/66/65 62/63/62 
f 66/67/66 67/68/67 64/65/64 
f 68/69/68 69/70/69 66/67/66 
f 70/71/70 71/72/71 68/69/68 
f 72/73/72 73/74/73 70/71/70 
f 74/75/74 75/76/75 72/73/72 
f 76/77/76 77/78/77 74/75/74 
f 78/79/78 79/80/79 76/77/76 
f 80/81/80 81/82/81 78/79/78 
f 35/34/35 82/83/82 80/81/80 
f 40/84/40 3/3/3 31/85/31 
usemtl Material_009
f 57/58/57 31/31/31 36/55/36 
f 59/60/59 29/29/29 57/58/57 
f 61/62/61 27/27/27 59/60/59 
f 63/64/63 25/25/25 61/62/61 
f 65/66/65 23/23/23 63/64/63 
f 67/68/67 21/21/21 65/66/65 
f 69/70/69 19/19/19 67/68/67 
f 71/72/71 17/17/17 69/70/69 
f 73/74/73 15/15/15 71/72/71 
f 75/76/75 13/13/13 73/74/73 
f 77/78/77 11/11/11 75/76/75 
f 79/80/79 9/9/9 77/78/77 
f 81/82/81 7/7/7 79/80/79 
f 82/83/82 5/5/5 81/82/81 
f 34/33/34 2/2/2 82/83/82 
f 35/34/35 54/52/54 52/50/52 
f 80/81/80 47/45/47 54/52/54 
f 78/79/78 48/46/48 47/45/47 
f 76/77/76 43/41/43 48/46/48 
f 74/75/74 44/42/44 43/41/43 
f 72/73/72 45/43/45 44/42/44 
f 70/71/70 46/44/46 45/43/45 
f 68/69/68 49/47/49 46/44/46 
f 66/67/66 50/48/50 49/47/49 
f 64/65/64 53/51/53 50/48/50 
f 62/63/62 41/39/41 53/51/53 
f 60/61/60 42/40/42 41/39/41 
f 58/59/58 37/36/37 42/40/42 
f 56/57/56 38/37/38 37/36/37 
f 55/54/55 51/53/51 38/37/38 
usemtl Material_001
f 1/1/1 40/84/40 32/1/32 
usemtl Material_009
f 33/32/33 52/50/52 51/49/51 
usemtl Material_001
f 1/1/1 4/4/4 2/2/2 
f 4/4/4 6/6/6 5/5/5 
f 6/6/6 8/8/8 7/7/7 
f 8/8/8 10/10/10 9/9/9 
f 10/10/10 12/12/12 11/11/11 
f 12/12/12 14/14/14 13/13/13 
f 14/14/14 16/16/16 15/15/15 
f 16/16/16 18/18/18 17/17/17 
f 18/18/18 20/20/20 19/19/19 
f 20/20/20 22/22/22 21/21/21 
f 22/22/22 24/24/24 23/23/23 
f 24/24/24 26/26/26 25/25/25 
f 26/26/26 28/28/28 27/27/27 
f 28/28/28 30/30/30 29/29/29 
f 30/30/30 40/38/40 31/31/31 
f 33/32/33 36/35/36 34/33/34 
usemtl Material_009
f 36/35/36 31/85/31 3/3/3 
usemtl Material_001
f 55/54/55 57/58/57 36/55/36 
f 56/57/56 59/60/59 57/58/57 
f 58/59/58 61/62/61 59/60/59 
f 60/61/60 63/64/63 61/62/61 
f 62/63/62 65/66/65 63/64/63 
f 64/65/64 67/68/67 65/66/65 
f 66/67/66 69/70/69 67/68/67 
f 68/69/68 71/72/71 69/70/69 
f 70/71/70 73/74/73 71/72/71 
f 72/73/72 75/76/75 73/74/73 
f 74/75/74 77/78/77 75/76/75 
f 76/77/76 79/80/79 77/78/77 
f 78/79/78 81/82/81 79/80/79 
f 80/81/80 82/83/82 81/82/81 
f 35/34/35 34/33/34 82/83/82 
f 40/84/40 1/1/1 3/3/3 
usemtl Material_009
f 57/58/57 29/29/29 31/31/31 
f 59/60/59 27/27/27 29/29/29 
f 61/62/61 25/25/25 27/27/27 
f 63/64/63 23/23/23 25/25/25 
f 65/66/65 21/21/21 23/23/23 
f 67/68/67 19/19/19 21/21/21 
f 69/70/69 17/17/17 19/19/19 
f 71/72/71 15/15/15 17/17/17 
f 73/74/73 13/13/13 15/15/15 
f 75/76/75 11/11/11 13/13/13 
f 77/78/77 9/9/9 11/11/11 
f 79/80/79 7/7/7 9/9/9 
f 81/82/81 5/5/5 7/7/7 
f 82/83/82 2/2/2 5/5/5 
f 34/33/34 3/3/3 2/2/2 
f 35/34/35 80/81/80 54/52/54 
f 80/81/80 78/79/78 47/45/47 
f 78/79/78 76/77/76 48/46/48 
f 76/77/76 74/75/74 43/41/43 
f 74/75/74 72/73/72 44/42/44 
f 72/73/72 70/71/70 45/43/45 
f 70/71/70 68/69/68 46/44/46 
f 68/69/68 66/67/66 49/47/49 
f 66/67/66 64/65/64 50/48/50 
f 64/65/64 62/63/62 53/51/53 
f 62/63/62 60/61/60 41/39/41 
f 60/61/60 58/59/58 42/40/42 
f 58/59/58 56/57/56 37/36/37 
f 56/57/56 55/54/55 38/37/38 
f 55/54/55 33/56/33 51/53/51 
f 33/32/33 35/34/35 52/50/52 
# 0 polygons - 160 triangles

