# 3ds Max Wavefront OBJ Exporter v0.99 - (c)2007 guruware
# File Created: 03.11.2024 13:40:58

mtllib Bender_BrazoDerechoInf.mtl

#
# object braso1_1
#

v  0.0561 0.0272 -0.0896
v  0.0026 -0.2080 -0.0848
v  -0.0102 0.0120 -0.0896
v  0.1117 -0.2170 -0.0395
v  0.1119 -0.3690 0.0246
v  0.1119 -0.3690 -0.0395
v  -0.0426 -0.2271 0.0246
v  -0.0428 -0.3655 -0.0395
v  -0.0428 -0.3655 0.0246
v  -0.0571 0.0012 0.0266
v  -0.0426 -0.2115 -0.0395
v  -0.0426 -0.2115 0.0246
v  0.1030 0.0380 -0.0415
v  0.1117 -0.1998 0.0246
v  0.1117 -0.1998 -0.0395
v  -0.0102 0.0120 0.0748
v  0.0026 -0.2080 0.0699
v  0.0665 -0.2032 -0.0848
v  0.0561 0.0272 0.0748
v  0.0665 -0.2032 0.0699
v  0.1030 0.0380 0.0266
v  -0.0571 0.0012 -0.0415
v  0.1613 -0.5372 -0.0624
v  0.1643 -0.5473 0.0489
v  0.1643 -0.5473 -0.0638
v  0.0836 -0.5624 -0.1402
v  0.0846 -0.5731 -0.1435
v  0.0026 -0.2258 0.0699
v  0.0025 -0.3823 0.0699
v  0.0665 -0.2216 -0.0848
v  0.0665 -0.2216 0.0699
v  0.0666 -0.3837 0.0699
v  -0.0426 -0.2271 -0.0395
v  0.0025 -0.3823 -0.0848
v  0.1117 -0.2170 0.0246
v  0.1150 -0.3796 -0.0410
v  0.0007 -0.3935 -0.0883
v  -0.0264 -0.5599 -0.1402
v  -0.0281 -0.5706 -0.1435
v  -0.1078 -0.5411 0.0489
v  -0.1078 -0.5411 -0.0638
v  0.0836 -0.5624 0.1253
v  -0.0281 -0.5706 0.1286
v  0.0846 -0.5731 0.1286
v  0.0677 -0.3950 -0.0883
v  0.0666 -0.3837 -0.0848
v  -0.1041 -0.5312 -0.0624
v  0.1613 -0.5372 0.0475
v  -0.1041 -0.5312 0.0475
v  0.0007 -0.3935 0.0734
v  -0.0264 -0.5599 0.1253
v  0.0026 -0.2258 -0.0848
v  -0.0467 -0.3760 0.0261
v  0.1150 -0.3796 0.0261
v  -0.0467 -0.3760 -0.0410
v  0.0677 -0.3950 0.0734
# 56 vertices

vn 0.3882 -0.0012 -0.9216
vn -0.3772 -0.0207 -0.9259
vn -0.3817 -0.0416 -0.9234
vn 0.9241 0.0009 -0.3822
vn 0.9078 0.1510 0.3912
vn 0.9078 0.1510 -0.3912
vn -0.9241 0.0010 0.3822
vn -0.8997 0.1805 -0.3975
vn -0.8997 0.1805 0.3975
vn -0.9223 -0.0669 0.3807
vn -0.9228 -0.0327 -0.3839
vn -0.9228 -0.0327 0.3839
vn 0.9250 0.0301 -0.3788
vn 0.9254 0.0157 0.3787
vn 0.9254 0.0157 -0.3787
vn -0.3817 -0.0416 0.9234
vn -0.3772 -0.0207 0.9259
vn 0.3906 -0.0006 -0.9206
vn 0.3882 -0.0012 0.9216
vn 0.3906 -0.0006 0.9206
vn 0.9250 0.0301 0.3788
vn -0.9223 -0.0669 -0.3807
vn 0.8661 0.3082 -0.3935
vn 0.7844 -0.4752 0.3986
vn 0.7844 -0.4752 -0.3986
vn 0.3379 0.3078 -0.8895
vn 0.2537 -0.5454 -0.7989
vn -0.3831 0.0003 0.9237
vn -0.3452 0.1871 0.9197
vn 0.3831 0.0003 -0.9237
vn 0.3831 0.0003 0.9237
vn 0.3629 0.1744 0.9153
vn -0.9241 0.0010 -0.3822
vn -0.3452 0.1871 -0.9197
vn 0.9241 0.0009 0.3822
vn -0.3172 0.3287 -0.8896
vn -0.2782 -0.5315 -0.8001
vn -0.8074 -0.4304 0.4035
vn -0.8074 -0.4304 -0.4035
vn 0.3379 0.3078 0.8895
vn -0.2782 -0.5315 0.8001
vn 0.2537 -0.5454 0.7989
vn 0.3629 0.1744 -0.9153
vn -0.8421 0.3662 -0.3959
vn 0.8661 0.3082 0.3935
vn -0.8421 0.3662 0.3959
vn -0.3172 0.3287 0.8896
vn -0.3831 0.0003 -0.9237
# 48 vertex normals

vt 0.7119 0.9690 0.0000
vt 0.9484 0.9690 0.0000
vt 0.7457 0.9690 0.0000
vt 0.7795 0.9690 0.0000
vt 0.8809 0.9690 0.0000
vt 0.9147 0.9690 0.0000
vt 0.8471 0.9690 0.0000
vt 0.8133 0.9690 0.0000
vt 0.7874 0.8262 0.0000
vt 0.8225 0.7414 0.0000
vt 0.8225 0.7911 0.0000
vt 0.7378 0.8262 0.0000
vt 0.7027 0.7911 0.0000
vt 0.7027 0.7414 0.0000
vt 0.7378 0.7063 0.0000
vt 0.7874 0.7063 0.0000
# 16 texture coords

o braso1_1
g braso1_1
usemtl Material_006
s off
f 1/1/1 2/2/2 3/2/3 
f 4/3/4 5/4/5 6/3/6 
f 7/5/7 8/6/8 9/5/9 
f 10/5/10 11/6/11 12/5/12 
f 13/3/13 14/4/14 15/3/15 
f 16/7/16 12/5/12 17/7/17 
f 1/1/1 15/3/15 18/1/18 
f 19/8/19 17/7/17 20/8/20 
f 21/4/21 20/8/20 14/4/14 
f 2/2/2 22/6/22 3/2/3 
usemtl Material_010
f 11/6/11 7/5/7 12/5/12 
f 23/3/23 24/4/24 25/3/25 
f 26/1/26 25/3/25 27/1/27 
usemtl Material_006
f 28/7/28 9/5/9 29/7/29 
usemtl Material_010
f 30/1/30 2/2/2 18/1/18 
usemtl Material_006
f 31/8/31 29/7/29 32/8/32 
usemtl Material_010
f 15/3/15 30/1/30 18/1/18 
usemtl Material_006
f 33/6/33 34/2/34 8/6/8 
f 32/8/32 35/4/35 31/8/31 
usemtl Material_010
f 5/4/5 36/3/23 6/3/6 
f 14/4/14 4/3/4 15/3/15 
usemtl Material_006
f 37/2/36 26/1/26 38/2/36 
f 39/9/37 40/10/38 41/11/39 
usemtl Material_010
f 26/1/26 39/2/37 38/2/36 
f 42/8/40 43/7/41 44/8/42 
f 6/3/6 45/1/26 46/1/43 
f 47/6/44 39/2/37 41/6/39 
f 48/4/45 44/8/42 24/4/24 
f 49/5/46 41/6/39 40/5/38 
f 9/5/9 50/7/47 29/7/29 
usemtl Material_006
f 50/7/47 49/5/46 51/7/47 
usemtl Material_010
f 20/8/20 35/4/35 14/4/14 
usemtl Material_006
f 30/1/30 6/3/6 46/1/43 
usemtl Material_010
f 2/2/2 33/6/33 11/6/11 
f 17/7/17 31/8/31 20/8/20 
usemtl Material_006
f 30/1/30 34/2/34 52/2/48 
usemtl Material_010
f 12/5/12 28/7/28 17/7/17 
f 45/1/26 34/2/34 46/1/43 
f 8/6/8 53/5/46 9/5/9 
f 32/8/32 54/4/45 5/4/5 
usemtl Material_006
f 45/1/26 23/3/23 26/1/26 
usemtl Material_010
f 34/2/34 55/6/44 8/6/8 
f 29/7/29 56/8/40 32/8/32 
usemtl Material_006
f 54/4/45 23/3/23 36/3/23 
f 53/5/46 47/6/44 49/5/46 
f 54/4/45 42/8/40 48/4/45 
usemtl Material_010
f 49/5/46 43/7/41 51/7/47 
usemtl Material_006
f 55/6/44 38/2/36 47/6/44 
f 56/8/40 51/7/47 42/8/40 
f 1/1/1 18/1/18 2/2/2 
f 4/3/4 35/4/35 5/4/5 
f 7/5/7 33/6/33 8/6/8 
f 10/5/10 22/6/22 11/6/11 
f 13/3/13 21/4/21 14/4/14 
f 16/7/16 10/5/10 12/5/12 
f 1/1/1 13/3/13 15/3/15 
f 19/8/19 16/7/16 17/7/17 
f 21/4/21 19/8/19 20/8/20 
f 2/2/2 11/6/11 22/6/22 
usemtl Material_010
f 11/6/11 33/6/33 7/5/7 
f 23/3/23 48/4/45 24/4/24 
f 26/1/26 23/3/23 25/3/25 
usemtl Material_006
f 28/7/28 7/5/7 9/5/9 
usemtl Material_010
f 30/1/30 52/2/48 2/2/2 
usemtl Material_006
f 31/8/31 28/7/28 29/7/29 
usemtl Material_010
f 15/3/15 4/3/4 30/1/30 
usemtl Material_006
f 33/6/33 52/2/48 34/2/34 
f 32/8/32 5/4/5 35/4/35 
usemtl Material_010
f 5/4/5 54/4/45 36/3/23 
f 14/4/14 35/4/35 4/3/4 
usemtl Material_006
f 37/2/36 45/1/26 26/1/26 
f 39/9/37 27/12/27 25/13/25 
f 39/9/37 25/13/25 24/14/24 
f 39/9/37 24/14/24 44/15/42 
f 39/9/37 44/15/42 43/16/41 
f 39/9/37 43/16/41 40/10/38 
usemtl Material_010
f 26/1/26 27/1/27 39/2/37 
f 42/8/40 51/7/47 43/7/41 
f 6/3/6 36/3/23 45/1/26 
f 47/6/44 38/2/36 39/2/37 
f 48/4/45 42/8/40 44/8/42 
f 49/5/46 47/6/44 41/6/39 
f 9/5/9 53/5/46 50/7/47 
usemtl Material_006
f 50/7/47 53/5/46 49/5/46 
usemtl Material_010
f 20/8/20 31/8/31 35/4/35 
usemtl Material_006
f 30/1/30 4/3/4 6/3/6 
usemtl Material_010
f 2/2/2 52/2/48 33/6/33 
f 17/7/17 28/7/28 31/8/31 
usemtl Material_006
f 30/1/30 46/1/43 34/2/34 
usemtl Material_010
f 12/5/12 7/5/7 28/7/28 
f 45/1/26 37/2/36 34/2/34 
f 8/6/8 55/6/44 53/5/46 
f 32/8/32 56/8/40 54/4/45 
usemtl Material_006
f 45/1/26 36/3/23 23/3/23 
usemtl Material_010
f 34/2/34 37/2/36 55/6/44 
f 29/7/29 50/7/47 56/8/40 
usemtl Material_006
f 54/4/45 48/4/45 23/3/23 
f 53/5/46 55/6/44 47/6/44 
f 54/4/45 56/8/40 42/8/40 
usemtl Material_010
f 49/5/46 40/5/38 43/7/41 
usemtl Material_006
f 55/6/44 37/2/36 38/2/36 
f 56/8/40 50/7/47 51/7/47 
# 0 polygons - 102 triangles

#
# object braso1_002
#

v  0.0571 -0.5223 0.0384
v  0.0571 -0.6797 0.0610
v  0.0571 -0.6797 0.0384
v  0.0571 -0.5223 0.0610
v  0.0412 -0.6797 0.0770
v  0.0412 -0.5223 0.0770
v  0.0186 -0.6797 0.0770
v  0.0186 -0.5223 0.0770
v  0.0026 -0.6797 0.0610
v  0.0026 -0.5223 0.0610
v  0.0026 -0.6797 0.0384
v  0.0026 -0.5223 0.0384
v  0.0186 -0.6797 0.0224
v  0.0186 -0.5223 0.0224
v  0.0412 -0.5223 0.0224
v  0.0412 -0.6797 0.0224
v  0.0186 -0.6862 0.0224
v  0.0026 -0.6862 0.0610
v  0.0026 -0.6862 0.0384
v  -0.0787 -0.6739 -0.0379
v  -0.0848 -0.6773 -0.0601
v  -0.0828 -0.6723 -0.0601
v  -0.0194 -0.5271 -0.0379
v  -0.0903 -0.6692 -0.0191
v  -0.0310 -0.5224 -0.0191
v  -0.1109 -0.6609 -0.0147
v  -0.0515 -0.5141 -0.0147
v  -0.1283 -0.6539 -0.0273
v  -0.0690 -0.5071 -0.0273
v  -0.1324 -0.6523 -0.0494
v  -0.0730 -0.5054 -0.0494
v  -0.1207 -0.6570 -0.0682
v  -0.0614 -0.5101 -0.0682
v  -0.1002 -0.6653 -0.0726
v  -0.1022 -0.6703 -0.0726
v  -0.0409 -0.5184 -0.0726
v  -0.0234 -0.5254 -0.0601
v  -0.1344 -0.6573 -0.0494
v  -0.1228 -0.6620 -0.0682
v  0.1480 -0.5065 -0.0550
v  0.1617 -0.6628 -0.0324
v  0.1617 -0.6628 -0.0550
v  0.1480 -0.5065 -0.0324
v  0.1458 -0.6642 -0.0164
v  0.1321 -0.5079 -0.0164
v  0.1233 -0.6662 -0.0164
v  0.1096 -0.5099 -0.0164
v  0.1074 -0.6676 -0.0324
v  0.0937 -0.5113 -0.0324
v  0.1074 -0.6676 -0.0550
v  0.0937 -0.5113 -0.0550
v  0.1233 -0.6662 -0.0709
v  0.1096 -0.5099 -0.0709
v  0.1321 -0.5079 -0.0709
v  0.1458 -0.6642 -0.0709
v  0.1239 -0.6731 -0.0709
v  0.1080 -0.6744 -0.0324
v  0.1080 -0.6744 -0.0550
v  0.0412 -0.6862 0.0224
v  0.0186 -0.6862 0.0770
v  0.0412 -0.6862 0.0770
v  0.0571 -0.6862 0.0610
v  0.0571 -0.6862 0.0384
v  0.1464 -0.6711 -0.0709
v  0.1239 -0.6731 -0.0164
v  0.1464 -0.6711 -0.0164
v  0.1623 -0.6697 -0.0324
v  0.1623 -0.6697 -0.0550
v  -0.1303 -0.6589 -0.0273
v  -0.1129 -0.6660 -0.0147
v  -0.0923 -0.6743 -0.0191
v  -0.0807 -0.6790 -0.0379
# 72 vertices

vn 0.7173 0.6303 -0.2971
vn 0.9239 0.0000 0.3827
vn 0.9239 0.0000 -0.3827
vn 0.7173 0.6303 0.2971
vn 0.3827 0.0000 0.9239
vn 0.2971 0.6303 0.7173
vn -0.3827 0.0000 0.9239
vn -0.2971 0.6303 0.7173
vn -0.9239 0.0000 0.3827
vn -0.7173 0.6303 0.2971
vn -0.9239 0.0000 -0.3827
vn -0.7173 0.6303 -0.2971
vn -0.3827 0.0000 -0.9239
vn -0.2971 0.6303 -0.7173
vn 0.2971 0.6303 -0.7173
vn 0.3827 0.0000 -0.9239
vn -0.2971 -0.6303 -0.7173
vn -0.7173 -0.6303 0.2971
vn -0.7173 -0.6303 -0.2971
vn 0.9094 -0.3673 0.1951
vn 0.3625 -0.8262 -0.4313
vn 0.7710 -0.3114 -0.5556
vn 0.9421 0.2992 0.1515
vn 0.5151 -0.2081 0.8315
vn 0.6360 0.4228 0.6455
vn -0.1809 0.0731 0.9808
vn 0.0956 0.6411 0.7615
vn -0.7710 0.3114 0.5556
vn -0.3625 0.8262 0.4313
vn -0.9094 0.3673 -0.1951
vn -0.4700 0.8696 -0.1514
vn -0.5151 0.2081 -0.8315
vn -0.1639 0.7459 -0.6455
vn 0.1809 -0.0731 -0.9808
vn -0.0956 -0.6411 -0.7615
vn 0.3765 0.5277 -0.7615
vn 0.8346 0.3426 -0.4313
vn -0.9421 -0.2992 -0.1515
vn -0.6360 -0.4228 -0.6455
vn 0.6595 0.6905 -0.2971
vn 0.9204 0.0807 0.3827
vn 0.9204 0.0807 -0.3827
vn 0.6595 0.6905 0.2971
vn 0.3812 0.0334 0.9239
vn 0.2409 0.6538 0.7173
vn -0.3812 -0.0334 0.9239
vn -0.3510 0.6019 0.7173
vn -0.9204 -0.0807 0.3827
vn -0.7696 0.5652 0.2971
vn -0.9204 -0.0807 -0.3827
vn -0.7696 0.5652 -0.2971
vn -0.3812 -0.0334 -0.9239
vn -0.3510 0.6019 -0.7173
vn 0.2409 0.6538 -0.7173
vn 0.3812 0.0334 -0.9239
vn -0.2409 -0.6538 -0.7173
vn -0.6595 -0.6905 0.2971
vn -0.6595 -0.6905 -0.2971
vn 0.2971 -0.6303 -0.7173
vn -0.2971 -0.6303 0.7173
vn 0.2971 -0.6303 0.7173
vn 0.7173 -0.6303 0.2971
vn 0.7173 -0.6303 -0.2971
vn 0.3510 -0.6019 -0.7173
vn -0.2409 -0.6538 0.7173
vn 0.3510 -0.6019 0.7173
vn 0.7696 -0.5652 0.2971
vn 0.7696 -0.5652 -0.2971
vn -0.8346 -0.3426 0.4313
vn -0.3765 -0.5277 0.7615
vn 0.1639 -0.7459 0.6455
vn 0.4700 -0.8696 0.1515
# 72 vertex normals

vt 0.5343 0.1958 0.0000
vt 0.5129 0.1138 0.0000
vt 0.5343 0.1138 0.0000
vt 0.5129 0.1958 0.0000
vt 0.4916 0.1138 0.0000
vt 0.4916 0.1958 0.0000
vt 0.4703 0.1138 0.0000
vt 0.4703 0.1958 0.0000
vt 0.4490 0.1138 0.0000
vt 0.4490 0.1958 0.0000
vt 0.4276 0.1138 0.0000
vt 0.4276 0.1958 0.0000
vt 0.4063 0.1138 0.0000
vt 0.4226 0.1056 0.0000
vt 0.4761 0.0835 0.0000
vt 0.4540 0.1056 0.0000
vt 0.4063 0.1958 0.0000
vt 0.5556 0.1138 0.0000
vt 0.5079 0.1056 0.0000
vt 0.4858 0.0521 0.0000
vt 0.4858 0.0835 0.0000
vt 0.5183 0.1133 0.0000
vt 0.5396 0.1105 0.0000
vt 0.5396 0.1133 0.0000
vt 0.5183 0.1958 0.0000
vt 0.4969 0.1133 0.0000
vt 0.4969 0.1958 0.0000
vt 0.4756 0.1133 0.0000
vt 0.4756 0.1958 0.0000
vt 0.4543 0.1133 0.0000
vt 0.4543 0.1958 0.0000
vt 0.4330 0.1133 0.0000
vt 0.4330 0.1958 0.0000
vt 0.4116 0.1133 0.0000
vt 0.4116 0.1958 0.0000
vt 0.5609 0.1133 0.0000
vt 0.5609 0.1105 0.0000
vt 0.4463 0.1080 0.0000
vt 0.4785 0.0598 0.0000
vt 0.4723 0.0906 0.0000
vt 0.5316 0.1080 0.0000
vt 0.4834 0.0758 0.0000
vt 0.5009 0.1019 0.0000
vt 0.5129 0.1141 0.0000
vt 0.5343 0.1141 0.0000
vt 0.4916 0.1141 0.0000
vt 0.4703 0.1141 0.0000
vt 0.4490 0.1141 0.0000
vt 0.4276 0.1141 0.0000
vt 0.4063 0.1141 0.0000
vt 0.5556 0.1141 0.0000
vt 0.5556 0.1105 0.0000
vt 0.4063 0.1105 0.0000
vt 0.4276 0.1105 0.0000
vt 0.4490 0.1105 0.0000
vt 0.4703 0.1105 0.0000
vt 0.4916 0.1105 0.0000
vt 0.5129 0.1105 0.0000
vt 0.5343 0.1105 0.0000
vt 0.5396 0.1958 0.0000
vt 0.5609 0.1958 0.0000
vt 0.4116 0.1105 0.0000
vt 0.4330 0.1105 0.0000
vt 0.4543 0.1105 0.0000
vt 0.4756 0.1105 0.0000
vt 0.4969 0.1105 0.0000
vt 0.5183 0.1105 0.0000
vt 0.5556 0.1958 0.0000
vt 0.4005 0.0835 0.0000
vt 0.4005 0.0521 0.0000
vt 0.4226 0.0300 0.0000
vt 0.4540 0.0300 0.0000
vt 0.4761 0.0521 0.0000
vt 0.5393 0.1056 0.0000
vt 0.5614 0.0835 0.0000
vt 0.5614 0.0521 0.0000
vt 0.5393 0.0300 0.0000
vt 0.5079 0.0300 0.0000
vt 0.4155 0.1019 0.0000
vt 0.3981 0.0758 0.0000
vt 0.4042 0.0451 0.0000
vt 0.4303 0.0276 0.0000
vt 0.4610 0.0338 0.0000
vt 0.5577 0.0906 0.0000
vt 0.5638 0.0598 0.0000
vt 0.5464 0.0338 0.0000
vt 0.5156 0.0276 0.0000
vt 0.4896 0.0451 0.0000
# 88 texture coords

o braso1_002
g braso1_002
usemtl Material_008
s off
f 57/17/49 58/18/50 59/19/51 
f 60/20/52 61/21/53 58/18/50 
f 62/22/54 63/23/55 61/21/53 
f 64/24/56 65/25/57 63/23/55 
f 66/26/58 67/27/59 65/25/57 
f 68/28/60 69/29/61 67/27/59 
f 70/30/62 57/31/49 71/32/63 
f 70/33/62 72/34/64 69/29/61 
f 73/35/65 74/36/66 75/37/67 
usemtl Material_011
f 76/38/68 77/39/69 78/40/70 
usemtl Material_008
f 79/41/71 80/42/72 76/38/68 
f 81/43/73 82/44/74 80/42/72 
f 83/45/75 84/46/76 82/44/74 
f 85/47/77 86/48/78 84/46/76 
f 87/49/79 88/50/80 86/48/78 
f 89/51/81 90/52/82 88/50/80 
usemtl Material_011
f 78/40/70 91/53/83 90/52/82 
usemtl Material_008
f 92/54/84 79/55/71 93/56/85 
f 91/57/83 94/58/86 95/59/87 
f 96/17/88 97/60/89 98/61/90 
f 99/20/91 100/62/92 97/60/89 
f 101/22/93 102/63/94 100/62/92 
f 103/24/95 104/64/96 102/63/94 
f 105/26/97 106/65/98 104/64/96 
f 107/28/99 108/66/100 106/65/98 
f 109/30/101 96/31/88 110/32/102 
f 109/33/101 111/67/103 108/66/100 
f 112/35/104 113/36/105 114/37/106 
usemtl Material_011
f 59/19/51 115/68/107 72/34/64 
f 73/69/65 72/34/64 115/68/107 
f 69/29/61 75/70/67 67/27/59 
f 67/27/59 74/71/66 65/25/57 
f 65/25/57 116/72/108 63/23/55 
f 63/23/55 117/73/109 61/21/53 
f 61/21/53 118/74/110 58/18/50 
f 58/18/50 119/75/111 59/19/51 
f 98/61/90 120/68/112 111/67/103 
f 112/69/104 111/67/103 120/68/112 
f 108/66/100 114/70/106 106/65/98 
f 106/65/98 113/71/105 104/64/96 
f 104/64/96 121/72/113 102/63/94 
f 102/63/94 122/73/114 100/62/92 
f 100/62/92 123/74/115 97/60/89 
f 97/60/89 124/75/116 98/61/90 
usemtl Material_008
f 93/76/85 76/38/68 78/40/70 
f 92/77/84 78/40/70 90/52/82 
usemtl Material_011
f 90/52/82 95/78/87 88/50/80 
f 88/50/80 94/79/86 86/48/78 
f 86/48/78 125/80/117 84/46/76 
f 84/46/76 126/81/118 82/44/74 
f 82/44/74 127/82/119 80/42/72 
f 80/42/72 128/83/120 76/38/68 
usemtl Material_008
f 71/84/63 59/19/51 72/34/64 
f 110/84/102 98/61/90 111/67/103 
f 57/17/49 60/20/52 58/18/50 
f 60/20/52 62/22/54 61/21/53 
f 62/22/54 64/24/56 63/23/55 
f 64/24/56 66/26/58 65/25/57 
f 66/26/58 68/28/60 67/27/59 
f 68/28/60 70/33/62 69/29/61 
f 70/30/62 68/85/60 66/86/58 
f 70/30/62 66/86/58 64/87/56 
f 70/30/62 64/87/56 62/88/54 
f 70/30/62 62/88/54 60/89/52 
f 70/30/62 60/89/52 57/31/49 
f 70/33/62 71/84/63 72/34/64 
f 73/35/65 115/90/107 119/91/111 
f 73/35/65 119/91/111 118/92/110 
f 73/35/65 118/92/110 117/93/109 
f 73/35/65 117/93/109 116/94/108 
f 73/35/65 116/94/108 74/36/66 
usemtl Material_011
f 76/38/68 128/83/120 77/39/69 
usemtl Material_008
f 79/41/71 81/43/73 80/42/72 
f 81/43/73 83/45/75 82/44/74 
f 83/45/75 85/47/77 84/46/76 
f 85/47/77 87/49/79 86/48/78 
f 87/49/79 89/51/81 88/50/80 
f 89/51/81 92/77/84 90/52/82 
usemtl Material_011
f 78/40/70 77/39/69 91/53/83 
usemtl Material_008
f 92/54/84 89/95/81 87/96/79 
f 92/54/84 87/96/79 85/97/77 
f 92/54/84 85/97/77 83/98/75 
f 92/54/84 83/98/75 81/99/73 
f 92/54/84 81/99/73 79/55/71 
f 91/57/83 77/100/69 128/101/120 
f 91/57/83 128/101/120 127/102/119 
f 91/57/83 127/102/119 126/103/118 
f 91/57/83 126/103/118 125/104/117 
f 91/57/83 125/104/117 94/58/86 
f 96/17/88 99/20/91 97/60/89 
f 99/20/91 101/22/93 100/62/92 
f 101/22/93 103/24/95 102/63/94 
f 103/24/95 105/26/97 104/64/96 
f 105/26/97 107/28/99 106/65/98 
f 107/28/99 109/33/101 108/66/100 
f 109/30/101 107/85/99 105/86/97 
f 109/30/101 105/86/97 103/87/95 
f 109/30/101 103/87/95 101/88/93 
f 109/30/101 101/88/93 99/89/91 
f 109/30/101 99/89/91 96/31/88 
f 109/33/101 110/84/102 111/67/103 
f 112/35/104 120/90/112 124/91/116 
f 112/35/104 124/91/116 123/92/115 
f 112/35/104 123/92/115 122/93/114 
f 112/35/104 122/93/114 121/94/113 
f 112/35/104 121/94/113 113/36/105 
usemtl Material_011
f 59/19/51 119/75/111 115/68/107 
f 73/69/65 69/29/61 72/34/64 
f 69/29/61 73/69/65 75/70/67 
f 67/27/59 75/70/67 74/71/66 
f 65/25/57 74/71/66 116/72/108 
f 63/23/55 116/72/108 117/73/109 
f 61/21/53 117/73/109 118/74/110 
f 58/18/50 118/74/110 119/75/111 
f 98/61/90 124/75/116 120/68/112 
f 112/69/104 108/66/100 111/67/103 
f 108/66/100 112/69/104 114/70/106 
f 106/65/98 114/70/106 113/71/105 
f 104/64/96 113/71/105 121/72/113 
f 102/63/94 121/72/113 122/73/114 
f 100/62/92 122/73/114 123/74/115 
f 97/60/89 123/74/115 124/75/116 
usemtl Material_008
f 93/76/85 79/41/71 76/38/68 
f 92/77/84 93/76/85 78/40/70 
usemtl Material_011
f 90/52/82 91/53/83 95/78/87 
f 88/50/80 95/78/87 94/79/86 
f 86/48/78 94/79/86 125/80/117 
f 84/46/76 125/80/117 126/81/118 
f 82/44/74 126/81/118 127/82/119 
f 80/42/72 127/82/119 128/83/120 
usemtl Material_008
f 71/84/63 57/17/49 59/19/51 
f 110/84/102 96/17/88 98/61/90 
# 0 polygons - 132 triangles

