# 3ds Max Wavefront OBJ Exporter v0.99 - (c)2007 guruware
# File Created: 03.11.2024 13:38:58

mtllib Bender_PiernaDerechoInf.mtl

#
# object pierna2_1
#

v  0.1229 -0.5271 -0.1008
v  0.1511 -0.5973 -0.2535
v  0.0872 -0.5258 -0.1870
v  0.2708 -0.7269 -0.1008
v  0.1948 -0.7397 0.0905
v  0.2740 -0.7401 -0.1008
v  -0.1830 -0.7114 -0.2874
v  -0.2636 -0.7241 -0.1008
v  -0.2602 -0.7109 -0.1008
v  0.0751 -0.5198 -0.1779
v  -0.0049 -0.5099 -0.1970
v  0.0630 -0.5139 -0.1688
v  0.1070 -0.5213 -0.1008
v  0.0912 -0.5155 -0.1008
v  0.0751 -0.5198 -0.0236
v  0.0630 -0.5139 -0.0327
v  -0.0019 -0.5163 0.0083
v  -0.0049 -0.5099 -0.0046
v  -0.0790 -0.5127 -0.0236
v  -0.0728 -0.5059 -0.0327
v  -0.1109 -0.5112 -0.1008
v  -0.1009 -0.5043 -0.1008
v  -0.0790 -0.5127 -0.1779
v  -0.0728 -0.5059 -0.1688
v  -0.0017 -0.5965 -0.3168
v  -0.1731 -0.6600 -0.2778
v  -0.1545 -0.5957 -0.2535
v  -0.0851 -0.5194 -0.0146
v  -0.0017 -0.5965 0.1153
v  0.0010 -0.5226 0.0212
v  0.0010 -0.5226 -0.2227
v  -0.0851 -0.5194 -0.1870
v  0.0872 -0.5258 -0.0146
v  0.2143 -0.5977 -0.1008
v  -0.1208 -0.5181 -0.1008
v  -0.1545 -0.5957 0.0520
v  0.1809 -0.6619 -0.2778
v  -0.2177 -0.5953 -0.1008
v  0.0039 -0.6610 0.1495
v  0.1902 -0.7134 0.0858
v  0.1809 -0.6619 0.0762
v  0.0039 -0.6610 -0.3511
v  0.1511 -0.5973 0.0520
v  -0.2464 -0.6596 -0.1008
v  0.2542 -0.6623 -0.1008
v  -0.1731 -0.6600 0.0762
v  0.0036 -0.7124 -0.3647
v  0.0035 -0.7446 -0.1008
v  0.2675 -0.7138 -0.1008
v  -0.1830 -0.7114 0.0858
v  0.1902 -0.7134 -0.2874
v  0.0036 -0.7124 0.1631
v  -0.1878 -0.7376 -0.2920
v  -0.2670 -0.7372 -0.1008
v  -0.1878 -0.7376 0.0905
v  -0.1854 -0.7245 0.0882
v  0.1925 -0.7265 -0.2897
v  0.1948 -0.7397 -0.2920
v  0.0036 -0.7255 0.1664
v  0.0035 -0.7386 0.1697
v  -0.1854 -0.7245 -0.2897
v  0.0035 -0.7386 -0.3713
v  0.0036 -0.7255 -0.3680
v  0.1925 -0.7265 0.0882
v  0.0631 -0.0846 -0.0746
v  -0.0003 0.0130 -0.1077
v  0.0677 0.0090 -0.0796
v  0.0913 -0.0862 -0.0066
v  0.0958 0.0074 -0.0115
v  0.0631 -0.0846 0.0614
v  0.0677 0.0090 0.0565
v  -0.0048 -0.0806 0.0896
v  -0.0003 0.0130 0.0847
v  -0.0727 -0.0766 0.0614
v  -0.0682 0.0170 0.0565
v  -0.1008 -0.0750 -0.0066
v  -0.0963 0.0186 -0.0115
v  -0.0727 -0.0766 -0.0746
v  -0.0682 0.0170 -0.0796
v  -0.1009 -0.1726 -0.0280
v  -0.0727 -0.1743 0.0400
v  -0.0048 -0.1782 0.0682
v  0.0631 -0.1822 0.0400
v  0.0912 -0.1839 -0.0280
v  0.0631 -0.1822 -0.0961
v  -0.0048 -0.1782 -0.1242
v  -0.0048 -0.0806 -0.1028
v  -0.0727 -0.1743 -0.0961
v  -0.0048 -0.1948 -0.1279
v  -0.0727 -0.1908 -0.0997
v  -0.1009 -0.3728 -0.0719
v  -0.1009 -0.1892 -0.0317
v  -0.0728 -0.3744 -0.1400
v  0.0631 -0.1988 -0.0997
v  0.0912 -0.2004 -0.0317
v  0.0631 -0.1988 0.0364
v  -0.0048 -0.1948 0.0646
v  -0.0727 -0.1908 0.0364
v  -0.0728 -0.3744 -0.0039
v  -0.0049 -0.3784 0.0243
v  0.0631 -0.3824 -0.0039
v  0.0912 -0.3840 -0.0719
v  0.0631 -0.3824 -0.1400
v  -0.0049 -0.3784 -0.1681
v  -0.0049 -0.3922 -0.1712
v  -0.0728 -0.3883 -0.1430
v  -0.0019 -0.5163 -0.2098
v  0.0631 -0.3962 -0.1430
v  0.0912 -0.3979 -0.0750
v  0.0631 -0.3962 -0.0069
v  -0.0049 -0.3922 0.0213
v  -0.0728 -0.3883 -0.0069
v  -0.1009 -0.3866 -0.0750
# 113 vertices

vn 0.5171 0.8559 -0.0000
vn 0.5409 0.6379 -0.5482
vn 0.3824 0.8515 -0.3588
vn 0.9711 0.2388 -0.0000
vn 0.5975 -0.5315 0.6004
vn 0.8462 -0.5329 -0.0000
vn -0.6834 0.2532 -0.6847
vn -0.9684 0.2493 -0.0000
vn -0.9670 0.2548 -0.0000
vn 0.2761 0.9271 -0.2536
vn 0.0120 0.6721 -0.7404
vn 0.5103 0.6899 -0.5135
vn 0.3528 0.9357 -0.0000
vn 0.7565 0.6535 -0.0263
vn 0.2761 0.9271 0.2535
vn 0.5980 0.5787 0.5545
vn 0.0170 0.8983 0.4390
vn 0.0015 0.5036 0.8639
vn -0.3637 0.8529 0.3745
vn -0.6401 0.4767 0.6024
vn -0.5618 0.8273 -0.0000
vn -0.8524 0.5222 -0.0269
vn -0.3637 0.8529 -0.3744
vn -0.5507 0.6053 -0.5748
vn -0.0079 0.6171 -0.7869
vn -0.6610 0.3376 -0.6702
vn -0.5721 0.5958 -0.5637
vn -0.3956 0.8152 0.4230
vn -0.0079 0.6171 0.7869
vn 0.0251 0.8373 0.5462
vn 0.0251 0.8373 -0.5462
vn -0.3956 0.8152 -0.4230
vn 0.3824 0.8515 0.3588
vn 0.7630 0.6463 -0.0000
vn -0.5969 0.8023 -0.0000
vn -0.5721 0.5958 0.5637
vn 0.6603 0.3730 -0.6518
vn -0.8097 0.5869 -0.0000
vn 0.0088 0.3563 0.9343
vn 0.6861 0.2458 0.6847
vn 0.6603 0.3730 0.6518
vn 0.0088 0.3563 -0.9343
vn 0.5409 0.6379 0.5482
vn -0.9443 0.3292 -0.0000
vn 0.9252 0.3794 -0.0000
vn -0.6610 0.3376 0.6702
vn 0.0013 0.2495 -0.9684
vn -0.0054 -1.0000 -0.0000
vn 0.9697 0.2443 -0.0000
vn -0.6834 0.2532 0.6847
vn 0.6861 0.2458 -0.6847
vn 0.0013 0.2495 0.9684
vn -0.6032 -0.5251 -0.6004
vn -0.8519 -0.5237 -0.0000
vn -0.6032 -0.5251 0.6004
vn -0.6844 0.2477 0.6857
vn 0.6870 0.2403 -0.6857
vn 0.5975 -0.5315 -0.6004
vn 0.0013 0.2440 0.9698
vn -0.0028 -0.5283 0.8491
vn -0.6844 0.2477 -0.6857
vn -0.0028 -0.5283 -0.8491
vn 0.0013 0.2440 -0.9698
vn 0.6870 0.2403 0.6857
vn 0.7223 0.0407 -0.6903
vn -0.0136 -0.1075 -0.9941
vn 0.7016 -0.1306 -0.7005
vn 0.9990 -0.0296 0.0333
vn 0.9972 -0.0741 0.0137
vn 0.6846 -0.0783 0.7247
vn 0.6987 0.0243 0.7150
vn -0.0096 -0.0792 0.9968
vn -0.0003 0.1059 0.9944
vn -0.6957 -0.0403 0.7172
vn -0.6956 0.1289 0.7068
vn -0.9993 0.0192 0.0319
vn -0.9967 0.0796 0.0128
vn -0.7234 0.0729 -0.6865
vn -0.7188 -0.0186 -0.6950
vn -1.0000 0.0006 -0.0018
vn -0.7061 -0.1515 0.6917
vn -0.0107 -0.2142 0.9767
vn 0.6971 -0.1538 0.7003
vn 1.0000 -0.0006 0.0018
vn 0.7061 0.1515 -0.6917
vn 0.0108 0.2142 -0.9767
vn -0.0014 0.0844 -0.9964
vn -0.6971 0.1538 -0.7003
vn 0.0107 0.2142 -0.9767
vn 0.0170 0.8983 -0.4390
# 90 vertex normals

vt 0.4962 0.4080 0.0000
vt 0.4530 0.4080 0.0000
vt 0.5394 0.4080 0.0000
vt 0.7121 0.4080 0.0000
vt 0.6689 0.4080 0.0000
vt 0.4530 0.4097 0.0000
vt 0.4098 0.4114 0.0000
vt 0.4530 0.4114 0.0000
vt 0.4962 0.4097 0.0000
vt 0.4962 0.4114 0.0000
vt 0.5394 0.4097 0.0000
vt 0.5394 0.4114 0.0000
vt 0.5825 0.4097 0.0000
vt 0.5825 0.4114 0.0000
vt 0.6257 0.4097 0.0000
vt 0.6257 0.4114 0.0000
vt 0.6689 0.4097 0.0000
vt 0.6689 0.4114 0.0000
vt 0.7121 0.4097 0.0000
vt 0.7121 0.4114 0.0000
vt 0.7553 0.4080 0.0000
vt 0.6257 0.4080 0.0000
vt 0.5825 0.4080 0.0000
vt 0.4098 0.4080 0.0000
vt 0.4530 0.4838 0.0000
vt 0.4098 0.4961 0.0000
vt 0.4530 0.4961 0.0000
vt 0.4962 0.4838 0.0000
vt 0.4962 0.4961 0.0000
vt 0.5394 0.4838 0.0000
vt 0.5394 0.4961 0.0000
vt 0.5825 0.4838 0.0000
vt 0.5825 0.4961 0.0000
vt 0.6257 0.4838 0.0000
vt 0.6257 0.4961 0.0000
vt 0.6689 0.4838 0.0000
vt 0.6689 0.4961 0.0000
vt 0.7121 0.4838 0.0000
vt 0.7121 0.4961 0.0000
vt 0.6689 0.4673 0.0000
vt 0.6257 0.4673 0.0000
vt 0.5825 0.4673 0.0000
vt 0.5394 0.4673 0.0000
vt 0.4962 0.4673 0.0000
vt 0.4530 0.4673 0.0000
vt 0.4098 0.4673 0.0000
vt 0.4098 0.4838 0.0000
vt 0.7121 0.4673 0.0000
vt 0.7553 0.4645 0.0000
vt 0.7121 0.4645 0.0000
vt 0.7553 0.4838 0.0000
vt 0.7553 0.4961 0.0000
vt 0.6689 0.4336 0.0000
vt 0.6689 0.4645 0.0000
vt 0.7121 0.4336 0.0000
vt 0.4530 0.4645 0.0000
vt 0.4962 0.4645 0.0000
vt 0.5394 0.4645 0.0000
vt 0.5825 0.4645 0.0000
vt 0.6257 0.4645 0.0000
vt 0.6257 0.4336 0.0000
vt 0.5825 0.4336 0.0000
vt 0.5394 0.4336 0.0000
vt 0.4962 0.4336 0.0000
vt 0.4530 0.4336 0.0000
vt 0.4098 0.4336 0.0000
vt 0.4098 0.4645 0.0000
vt 0.7553 0.4312 0.0000
vt 0.7121 0.4312 0.0000
vt 0.7553 0.4097 0.0000
vt 0.7553 0.4114 0.0000
vt 0.4530 0.4312 0.0000
vt 0.4962 0.4312 0.0000
vt 0.5394 0.4312 0.0000
vt 0.5825 0.4312 0.0000
vt 0.6257 0.4312 0.0000
vt 0.6689 0.4312 0.0000
vt 0.4098 0.4312 0.0000
vt 0.4098 0.4097 0.0000
vt 0.7553 0.4673 0.0000
vt 0.7553 0.4336 0.0000
# 81 texture coords

o pierna2_1
g pierna2_1
usemtl Material_007
s off
f 1/1/1 2/2/2 3/2/3 
usemtl Material_012
f 4/1/4 5/3/5 6/1/6 
usemtl Material_007
f 7/4/7 8/5/8 9/5/9 
usemtl Material_012
f 10/6/10 11/7/11 12/8/12 
f 13/9/13 12/8/12 14/10/14 
f 15/11/15 14/10/14 16/12/16 
f 17/13/17 16/12/16 18/14/18 
f 19/15/19 18/14/18 20/16/20 
f 21/17/21 20/16/20 22/18/22 
f 23/19/23 22/18/22 24/20/24 
usemtl Material_007
f 25/21/25 26/4/26 27/4/27 
f 28/22/28 29/23/29 30/23/30 
f 31/21/31 27/4/27 32/4/32 
f 33/3/33 34/1/34 1/1/1 
f 35/5/35 36/22/36 28/22/28 
f 3/2/3 25/24/25 31/24/31 
f 34/1/34 37/2/37 2/2/2 
f 32/4/32 38/5/38 35/5/35 
f 36/22/36 39/23/39 29/23/29 
f 39/23/39 40/3/40 41/3/41 
f 2/2/2 42/24/42 25/24/25 
f 29/23/29 41/3/41 43/3/43 
f 27/4/27 44/5/44 38/5/38 
f 43/3/43 45/1/45 34/1/34 
f 38/5/38 46/22/46 36/22/36 
f 42/21/42 7/4/7 26/4/26 
f 37/2/37 47/24/47 42/24/42 
f 5/3/5 48/3/48 6/1/6 
f 26/4/26 9/5/9 44/5/44 
f 41/3/41 49/1/49 45/1/45 
f 44/5/44 50/22/50 46/22/46 
f 45/1/45 51/2/51 37/2/37 
f 46/22/46 52/23/52 39/23/39 
usemtl Material_012
f 8/5/8 53/4/53 54/5/54 
usemtl Material_007
f 40/3/40 4/1/4 49/1/49 
f 54/5/54 48/5/48 55/22/55 
usemtl Material_012
f 56/22/56 54/5/54 55/22/55 
f 57/2/57 6/1/6 58/2/58 
f 59/23/59 55/22/55 60/23/60 
f 61/4/61 62/21/62 53/4/53 
f 63/24/63 58/2/58 62/24/62 
f 60/23/60 64/3/64 59/23/59 
usemtl Material_007
f 6/1/6 48/1/48 58/2/58 
f 55/22/55 48/22/48 60/23/60 
f 62/21/62 48/21/48 53/4/53 
f 58/2/58 48/2/48 62/24/62 
f 60/23/60 48/23/48 5/3/5 
f 53/4/53 48/4/48 54/5/54 
f 65/25/65 66/26/66 67/27/67 
f 68/28/68 67/27/67 69/29/69 
f 70/30/70 69/29/69 71/31/71 
f 72/32/72 71/31/71 73/33/73 
f 74/34/74 73/33/73 75/35/75 
f 76/36/76 75/35/75 77/37/77 
f 78/38/78 77/37/77 79/39/79 
f 78/38/78 80/40/80 76/36/76 
f 76/36/76 81/41/81 74/34/74 
f 74/34/74 82/42/82 72/32/72 
f 72/32/72 83/43/83 70/30/70 
f 70/30/70 84/44/84 68/28/68 
f 68/28/68 85/45/85 65/25/65 
f 65/25/65 86/46/86 87/47/87 
usemtl Material_012
f 88/48/88 89/49/89 90/50/88 
f 90/50/88 80/40/80 88/48/88 
usemtl Material_007
f 87/51/87 88/48/88 78/38/78 
f 87/51/87 79/39/79 66/52/66 
f 90/50/88 91/53/80 92/54/80 
f 89/49/89 93/55/88 90/50/88 
usemtl Material_012
f 94/56/85 86/46/86 85/45/85 
f 95/57/84 85/45/85 84/44/84 
f 96/58/83 84/44/84 83/43/83 
f 97/59/82 83/43/83 82/42/82 
f 98/60/81 82/42/82 81/41/81 
f 92/54/80 81/41/81 80/40/80 
usemtl Material_007
f 92/54/80 99/61/81 98/60/81 
f 98/60/81 100/62/82 97/59/82 
f 97/59/82 101/63/83 96/58/83 
f 96/58/83 102/64/84 95/57/84 
f 95/57/84 103/65/85 94/56/85 
f 94/56/85 104/66/89 89/67/89 
usemtl Material_012
f 93/55/88 105/68/89 106/69/88 
f 106/69/88 91/53/80 93/55/88 
f 107/70/90 24/20/24 11/71/11 
f 108/72/85 104/66/89 103/65/85 
f 109/73/84 103/65/85 102/64/84 
f 110/74/83 102/64/84 101/63/83 
f 111/75/82 101/63/83 100/62/82 
f 112/76/81 100/62/82 99/61/81 
f 113/77/80 99/61/81 91/53/80 
usemtl Material_007
f 106/69/88 22/18/22 113/77/80 
f 113/77/80 20/16/20 112/76/81 
f 112/76/81 18/14/18 111/75/82 
f 111/75/82 16/12/16 110/74/83 
f 110/74/83 14/10/14 109/73/84 
f 109/73/84 12/8/12 108/72/85 
f 108/72/85 11/7/11 105/78/89 
f 30/23/30 43/3/43 33/3/33 
f 23/19/23 35/5/35 21/17/21 
f 21/17/21 28/22/28 19/15/19 
f 19/15/19 30/23/30 17/13/17 
f 17/13/17 33/3/33 15/11/15 
f 15/11/15 1/1/1 13/9/13 
f 13/9/13 3/2/3 10/6/10 
f 10/6/10 31/24/31 107/79/90 
f 105/68/89 24/20/24 106/69/88 
f 52/23/52 64/3/64 40/3/40 
f 51/2/51 63/24/63 47/24/47 
f 47/21/47 61/4/61 7/4/7 
f 50/22/50 59/23/59 52/23/52 
f 49/1/49 57/2/57 51/2/51 
f 9/5/9 56/22/56 50/22/50 
f 107/70/90 32/4/32 23/19/23 
f 1/1/1 34/1/34 2/2/2 
usemtl Material_012
f 4/1/4 64/3/64 5/3/5 
usemtl Material_007
f 7/4/7 61/4/61 8/5/8 
usemtl Material_012
f 10/6/10 107/79/90 11/7/11 
f 13/9/13 10/6/10 12/8/12 
f 15/11/15 13/9/13 14/10/14 
f 17/13/17 15/11/15 16/12/16 
f 19/15/19 17/13/17 18/14/18 
f 21/17/21 19/15/19 20/16/20 
f 23/19/23 21/17/21 22/18/22 
usemtl Material_007
f 25/21/25 42/21/42 26/4/26 
f 28/22/28 36/22/36 29/23/29 
f 31/21/31 25/21/25 27/4/27 
f 33/3/33 43/3/43 34/1/34 
f 35/5/35 38/5/38 36/22/36 
f 3/2/3 2/2/2 25/24/25 
f 34/1/34 45/1/45 37/2/37 
f 32/4/32 27/4/27 38/5/38 
f 36/22/36 46/22/46 39/23/39 
f 39/23/39 52/23/52 40/3/40 
f 2/2/2 37/2/37 42/24/42 
f 29/23/29 39/23/39 41/3/41 
f 27/4/27 26/4/26 44/5/44 
f 43/3/43 41/3/41 45/1/45 
f 38/5/38 44/5/44 46/22/46 
f 42/21/42 47/21/47 7/4/7 
f 37/2/37 51/2/51 47/24/47 
f 26/4/26 7/4/7 9/5/9 
f 41/3/41 40/3/40 49/1/49 
f 44/5/44 9/5/9 50/22/50 
f 45/1/45 49/1/49 51/2/51 
f 46/22/46 50/22/50 52/23/52 
usemtl Material_012
f 8/5/8 61/4/61 53/4/53 
usemtl Material_007
f 40/3/40 64/3/64 4/1/4 
usemtl Material_012
f 56/22/56 8/5/8 54/5/54 
f 57/2/57 4/1/4 6/1/6 
f 59/23/59 56/22/56 55/22/55 
f 61/4/61 63/21/63 62/21/62 
f 63/24/63 57/2/57 58/2/58 
f 60/23/60 5/3/5 64/3/64 
usemtl Material_007
f 65/25/65 87/47/87 66/26/66 
f 68/28/68 65/25/65 67/27/67 
f 70/30/70 68/28/68 69/29/69 
f 72/32/72 70/30/70 71/31/71 
f 74/34/74 72/32/72 73/33/73 
f 76/36/76 74/34/74 75/35/75 
f 78/38/78 76/36/76 77/37/77 
f 78/38/78 88/48/88 80/40/80 
f 76/36/76 80/40/80 81/41/81 
f 74/34/74 81/41/81 82/42/82 
f 72/32/72 82/42/82 83/43/83 
f 70/30/70 83/43/83 84/44/84 
f 68/28/68 84/44/84 85/45/85 
f 65/25/65 85/45/85 86/46/86 
usemtl Material_012
f 88/48/88 86/80/86 89/49/89 
f 90/50/88 92/54/80 80/40/80 
usemtl Material_007
f 87/51/87 86/80/86 88/48/88 
f 87/51/87 78/38/78 79/39/79 
f 90/50/88 93/55/88 91/53/80 
f 89/49/89 104/81/89 93/55/88 
usemtl Material_012
f 94/56/85 89/67/89 86/46/86 
f 95/57/84 94/56/85 85/45/85 
f 96/58/83 95/57/84 84/44/84 
f 97/59/82 96/58/83 83/43/83 
f 98/60/81 97/59/82 82/42/82 
f 92/54/80 98/60/81 81/41/81 
usemtl Material_007
f 92/54/80 91/53/80 99/61/81 
f 98/60/81 99/61/81 100/62/82 
f 97/59/82 100/62/82 101/63/83 
f 96/58/83 101/63/83 102/64/84 
f 95/57/84 102/64/84 103/65/85 
f 94/56/85 103/65/85 104/66/89 
usemtl Material_012
f 93/55/88 104/81/89 105/68/89 
f 106/69/88 113/77/80 91/53/80 
f 107/70/90 23/19/23 24/20/24 
f 108/72/85 105/78/89 104/66/89 
f 109/73/84 108/72/85 103/65/85 
f 110/74/83 109/73/84 102/64/84 
f 111/75/82 110/74/83 101/63/83 
f 112/76/81 111/75/82 100/62/82 
f 113/77/80 112/76/81 99/61/81 
usemtl Material_007
f 106/69/88 24/20/24 22/18/22 
f 113/77/80 22/18/22 20/16/20 
f 112/76/81 20/16/20 18/14/18 
f 111/75/82 18/14/18 16/12/16 
f 110/74/83 16/12/16 14/10/14 
f 109/73/84 14/10/14 12/8/12 
f 108/72/85 12/8/12 11/7/11 
f 30/23/30 29/23/29 43/3/43 
f 23/19/23 32/4/32 35/5/35 
f 21/17/21 35/5/35 28/22/28 
f 19/15/19 28/22/28 30/23/30 
f 17/13/17 30/23/30 33/3/33 
f 15/11/15 33/3/33 1/1/1 
f 13/9/13 1/1/1 3/2/3 
f 10/6/10 3/2/3 31/24/31 
f 105/68/89 11/71/11 24/20/24 
f 52/23/52 59/23/59 64/3/64 
f 51/2/51 57/2/57 63/24/63 
f 47/21/47 63/21/63 61/4/61 
f 50/22/50 56/22/56 59/23/59 
f 49/1/49 4/1/4 57/2/57 
f 9/5/9 8/5/8 56/22/56 
f 107/70/90 31/21/31 32/4/32 
# 0 polygons - 216 triangles

