# 3ds Max Wavefront OBJ Exporter v0.99 - (c)2007 guruware
# File Created: 03.11.2024 13:38:31

mtllib Bender_PiernaDerechoSup.mtl

#
# object Pierna2_2
#

v  -0.0278 -0.0033 -0.1025
v  -0.0680 -0.1154 -0.0158
v  -0.0559 -0.0016 -0.0345
v  -0.0399 -0.1171 0.0522
v  -0.0278 -0.0033 0.0335
v  0.0280 -0.1210 0.0804
v  0.0401 -0.0072 0.0617
v  0.0960 -0.1250 0.0522
v  0.1080 -0.0112 0.0335
v  0.1241 -0.1267 -0.0158
v  0.1362 -0.0129 -0.0345
v  0.0960 -0.1250 -0.0839
v  0.1080 -0.0112 -0.1025
v  0.0280 -0.1210 -0.1121
v  0.0401 -0.0072 -0.1307
v  -0.0399 -0.1171 -0.0839
v  0.0261 -0.1393 -0.1091
v  -0.0418 -0.1354 -0.0809
v  -0.0836 -0.5284 -0.0164
v  -0.0177 -0.5516 -0.0415
v  -0.0856 -0.5476 -0.0133
v  -0.1117 -0.5267 0.0516
v  -0.0919 -0.3398 0.0209
v  -0.0700 -0.1337 -0.0128
v  -0.0637 -0.3415 -0.0471
v  0.0940 -0.1433 -0.0809
v  0.1221 -0.1450 -0.0128
v  0.0940 -0.1433 0.0552
v  0.0261 -0.1393 0.0834
v  -0.0418 -0.1354 0.0552
v  -0.0637 -0.3415 0.0890
v  0.0042 -0.3455 0.1172
v  0.0721 -0.3494 0.0890
v  0.1003 -0.3511 0.0209
v  0.0721 -0.3494 -0.0471
v  0.0042 -0.3455 -0.0753
v  0.0027 -0.3595 -0.0730
v  -0.0652 -0.3556 -0.0448
v  -0.0934 -0.3539 0.0233
v  0.0706 -0.3635 -0.0448
v  0.0988 -0.3651 0.0233
v  0.0706 -0.3635 0.0913
v  0.0027 -0.3595 0.1195
v  -0.0652 -0.3556 0.0913
v  -0.0836 -0.5284 0.1196
v  -0.0157 -0.5324 0.1478
v  0.0523 -0.5363 0.1196
v  0.0804 -0.5380 0.0516
v  0.0523 -0.5363 -0.0164
v  -0.0157 -0.5324 -0.0446
v  0.0502 -0.5555 -0.0133
v  0.0784 -0.5572 0.0547
v  0.0502 -0.5555 0.1228
v  -0.0177 -0.5516 0.1510
v  -0.0856 -0.5476 0.1228
v  -0.1137 -0.5460 0.0547
# 56 vertices

vn -0.5112 0.6282 -0.5865
vn -0.9944 0.1054 -0.0011
vn -0.7243 0.6889 -0.0305
vn -0.6908 0.1878 0.6982
vn -0.4854 0.7138 0.5048
vn 0.0105 0.1607 0.9870
vn 0.0490 0.6881 0.7240
vn 0.7096 0.0400 0.7035
vn 0.5890 0.6252 0.5121
vn 0.9944 -0.1054 0.0011
vn 0.8262 0.5626 -0.0306
vn 0.6908 -0.1878 -0.6982
vn 0.6009 0.5392 -0.5900
vn -0.0105 -0.1607 -0.9870
vn 0.0420 0.5670 -0.8227
vn -0.7096 -0.0400 -0.7035
vn -0.7095 -0.0400 -0.7035
vn -0.0136 -0.1075 -0.9941
vn -0.7188 -0.0186 -0.6950
vn 0.7016 -0.1306 -0.7005
vn 0.9972 -0.0741 0.0137
vn 0.6987 0.0243 0.7150
vn -0.0003 0.1059 0.9944
vn -0.6956 0.1289 0.7068
vn -0.9967 0.0796 0.0128
# 25 vertex normals

vt 0.7121 0.5807 0.0000
vt 0.6689 0.5630 0.0000
vt 0.6689 0.5807 0.0000
vt 0.6257 0.5630 0.0000
vt 0.6257 0.5807 0.0000
vt 0.5825 0.5630 0.0000
vt 0.5825 0.5807 0.0000
vt 0.5394 0.5630 0.0000
vt 0.5394 0.5807 0.0000
vt 0.4962 0.5630 0.0000
vt 0.4962 0.5807 0.0000
vt 0.4530 0.5630 0.0000
vt 0.4530 0.5807 0.0000
vt 0.4098 0.5630 0.0000
vt 0.4098 0.5807 0.0000
vt 0.7121 0.5630 0.0000
vt 0.7553 0.5602 0.0000
vt 0.7121 0.5602 0.0000
vt 0.7121 0.4990 0.0000
vt 0.7553 0.4961 0.0000
vt 0.7121 0.4961 0.0000
vt 0.6689 0.4990 0.0000
vt 0.7553 0.5807 0.0000
vt 0.6689 0.5281 0.0000
vt 0.6689 0.5602 0.0000
vt 0.7121 0.5281 0.0000
vt 0.4530 0.5602 0.0000
vt 0.4962 0.5602 0.0000
vt 0.5394 0.5602 0.0000
vt 0.5825 0.5602 0.0000
vt 0.6257 0.5602 0.0000
vt 0.6257 0.5281 0.0000
vt 0.5825 0.5281 0.0000
vt 0.5394 0.5281 0.0000
vt 0.4962 0.5281 0.0000
vt 0.4530 0.5281 0.0000
vt 0.4098 0.5281 0.0000
vt 0.4098 0.5602 0.0000
vt 0.7553 0.5259 0.0000
vt 0.7121 0.5259 0.0000
vt 0.6689 0.5259 0.0000
vt 0.4530 0.5259 0.0000
vt 0.4962 0.5259 0.0000
vt 0.5394 0.5259 0.0000
vt 0.5825 0.5259 0.0000
vt 0.6257 0.5259 0.0000
vt 0.6257 0.4990 0.0000
vt 0.5825 0.4990 0.0000
vt 0.5394 0.4990 0.0000
vt 0.4962 0.4990 0.0000
vt 0.4530 0.4990 0.0000
vt 0.4098 0.4990 0.0000
vt 0.4098 0.5259 0.0000
vt 0.4530 0.4961 0.0000
vt 0.4962 0.4961 0.0000
vt 0.5394 0.4961 0.0000
vt 0.5825 0.4961 0.0000
vt 0.6257 0.4961 0.0000
vt 0.6689 0.4961 0.0000
vt 0.7553 0.5630 0.0000
vt 0.7553 0.4990 0.0000
vt 0.7553 0.5281 0.0000
vt 0.4098 0.4961 0.0000
# 63 texture coords

o Pierna2_2
g Pierna2_2
usemtl Material_007
s off
f 1/1/1 2/2/2 3/3/3 
f 3/3/3 4/4/4 5/5/5 
f 5/5/5 6/6/6 7/7/7 
f 7/7/7 8/8/8 9/9/9 
f 9/9/9 10/10/10 11/11/11 
f 11/11/11 12/12/12 13/13/13 
f 13/13/13 14/14/14 15/15/15 
usemtl Material_012
f 16/16/16 17/17/14 18/18/17 
f 18/18/17 2/2/2 16/16/16 
f 19/19/16 20/20/18 21/21/19 
f 21/21/19 22/22/2 19/19/16 
usemtl Material_007
f 15/23/15 16/16/16 1/1/1 
f 18/18/17 23/24/2 24/25/2 
f 17/17/14 25/26/16 18/18/17 
usemtl Material_012
f 26/27/12 14/14/14 12/12/12 
f 27/28/10 12/12/12 10/10/10 
f 28/29/8 10/10/10 8/8/8 
f 29/30/6 8/8/8 6/6/6 
f 30/31/4 6/6/6 4/4/4 
f 24/25/2 4/4/4 2/2/2 
usemtl Material_007
f 24/25/2 31/32/4 30/31/4 
f 30/31/4 32/33/6 29/30/6 
f 29/30/6 33/34/8 28/29/8 
f 28/29/8 34/35/10 27/28/10 
f 27/28/10 35/36/12 26/27/12 
f 26/27/12 36/37/14 17/38/14 
usemtl Material_012
f 25/26/16 37/39/14 38/40/16 
f 38/40/16 23/24/2 25/26/16 
usemtl Material_007
f 38/40/16 22/22/2 39/41/2 
f 37/39/14 19/19/16 38/40/16 
usemtl Material_012
f 40/42/12 36/37/14 35/36/12 
f 41/43/10 35/36/12 34/35/10 
f 42/44/8 34/35/10 33/34/8 
f 43/45/6 33/34/8 32/33/6 
f 44/46/4 32/33/6 31/32/4 
f 39/41/2 31/32/4 23/24/2 
usemtl Material_007
f 39/41/2 45/47/4 44/46/4 
f 44/46/4 46/48/6 43/45/6 
f 43/45/6 47/49/8 42/44/8 
f 42/44/8 48/50/10 41/43/10 
f 41/43/10 49/51/12 40/42/12 
f 40/42/12 50/52/14 37/53/14 
usemtl Material_012
f 51/54/20 50/52/14 49/51/12 
f 52/55/21 49/51/12 48/50/10 
f 53/56/22 48/50/10 47/49/8 
f 54/57/23 47/49/8 46/48/6 
f 55/58/24 46/48/6 45/47/4 
f 56/59/25 45/47/4 22/22/2 
usemtl Material_007
f 1/1/1 16/16/16 2/2/2 
f 3/3/3 2/2/2 4/4/4 
f 5/5/5 4/4/4 6/6/6 
f 7/7/7 6/6/6 8/8/8 
f 9/9/9 8/8/8 10/10/10 
f 11/11/11 10/10/10 12/12/12 
f 13/13/13 12/12/12 14/14/14 
usemtl Material_012
f 16/16/16 14/60/14 17/17/14 
f 18/18/17 24/25/2 2/2/2 
f 19/19/16 50/61/14 20/20/18 
f 21/21/19 56/59/25 22/22/2 
usemtl Material_007
f 15/23/15 14/60/14 16/16/16 
f 18/18/17 25/26/16 23/24/2 
f 17/17/14 36/62/14 25/26/16 
usemtl Material_012
f 26/27/12 17/38/14 14/14/14 
f 27/28/10 26/27/12 12/12/12 
f 28/29/8 27/28/10 10/10/10 
f 29/30/6 28/29/8 8/8/8 
f 30/31/4 29/30/6 6/6/6 
f 24/25/2 30/31/4 4/4/4 
usemtl Material_007
f 24/25/2 23/24/2 31/32/4 
f 30/31/4 31/32/4 32/33/6 
f 29/30/6 32/33/6 33/34/8 
f 28/29/8 33/34/8 34/35/10 
f 27/28/10 34/35/10 35/36/12 
f 26/27/12 35/36/12 36/37/14 
usemtl Material_012
f 25/26/16 36/62/14 37/39/14 
f 38/40/16 39/41/2 23/24/2 
usemtl Material_007
f 38/40/16 19/19/16 22/22/2 
f 37/39/14 50/61/14 19/19/16 
usemtl Material_012
f 40/42/12 37/53/14 36/37/14 
f 41/43/10 40/42/12 35/36/12 
f 42/44/8 41/43/10 34/35/10 
f 43/45/6 42/44/8 33/34/8 
f 44/46/4 43/45/6 32/33/6 
f 39/41/2 44/46/4 31/32/4 
usemtl Material_007
f 39/41/2 22/22/2 45/47/4 
f 44/46/4 45/47/4 46/48/6 
f 43/45/6 46/48/6 47/49/8 
f 42/44/8 47/49/8 48/50/10 
f 41/43/10 48/50/10 49/51/12 
f 40/42/12 49/51/12 50/52/14 
usemtl Material_012
f 51/54/20 20/63/18 50/52/14 
f 52/55/21 51/54/20 49/51/12 
f 53/56/22 52/55/21 48/50/10 
f 54/57/23 53/56/22 47/49/8 
f 55/58/24 54/57/23 46/48/6 
f 56/59/25 55/58/24 45/47/4 
# 0 polygons - 96 triangles

