# 3ds Max Wavefront OBJ Exporter v0.99 - (c)2007 guruware
# File Created: 04.11.2024 20:43:38

mtllib brazoDipper_der.mtl

#
# object brazoDipper_der
#

v  0.0008 0.0315 -0.0068
v  0.0187 -0.0148 -0.0507
v  -0.0185 -0.0143 -0.0507
v  0.0121 -0.1476 -0.0471
v  0.0046 -0.3689 -0.0468
v  -0.0339 -0.3691 -0.0465
v  -0.0259 -0.1471 -0.0471
v  -0.0492 -0.1444 -0.0100
v  -0.0413 -0.0117 -0.0144
v  0.0276 -0.1472 0.0002
v  0.0338 -0.0144 -0.0044
v  0.0207 -0.0126 0.0315
v  -0.0202 -0.0107 0.0286
v  -0.0277 -0.1434 0.0339
v  -0.0351 -0.3609 0.0350
v  0.0071 -0.3620 0.0378
v  0.0141 -0.1453 0.0369
v  0.0205 -0.3657 0.0008
v  -0.0572 -0.3647 -0.0091
# 19 vertices

vn 0.6903 -0.0091 -0.7234
vn 0.7230 0.3181 -0.6133
vn -0.0102 0.0018 -0.9999
vn -0.0144 0.0063 -0.9999
vn -0.0047 -0.0444 -0.9990
vn -0.0147 -0.0005 -0.9999
vn 0.0328 0.8452 -0.5334
vn 0.0328 0.8453 -0.5333
vn -0.0376 -0.9991 0.0181
vn 0.2181 -0.9740 -0.0619
vn 0.1780 -0.9266 0.3313
vn 0.5842 -0.8116 -0.0031
vn 0.5547 -0.7896 -0.2625
vn 0.6497 0.0252 0.7598
vn 0.2584 0.0582 0.9643
vn 0.6687 0.6070 -0.4294
vn 0.0067 0.0696 0.9976
vn 0.0123 0.0668 0.9977
vn 0.0165 0.0931 0.9955
vn 0.0252 0.0714 0.9971
vn -0.0301 -0.9381 0.3450
vn -0.0290 -0.9390 0.3426
vn -0.0094 -0.9225 0.3859
vn -0.0316 -0.9484 -0.3156
vn -0.0205 -0.9634 -0.2673
vn -0.0440 -0.9497 -0.3101
vn 0.0329 0.8973 0.4401
vn 0.0562 0.8966 0.4392
vn 0.0450 0.8962 0.4414
vn 0.0075 0.8862 0.4633
vn 0.0177 0.8945 0.4467
vn 0.0283 0.8456 -0.5331
vn 0.0305 0.8454 -0.5332
vn 0.0300 0.8460 -0.5324
vn 0.0034 0.8068 -0.5909
vn 0.0289 0.8470 -0.5308
vn 0.3652 0.8390 0.4034
vn 0.2658 0.8677 0.4200
vn -0.0268 -0.0005 -0.9996
vn -0.0268 -0.0004 -0.9996
vn -0.0552 -0.9492 -0.3099
vn 0.0441 0.0704 0.9965
vn 0.0441 0.0705 0.9965
# 43 vertex normals

vt 0.8979 0.8309 0.0000
vt 0.9271 0.8450 0.0000
vt 0.9259 0.8462 0.0000
vt 0.7586 0.0281 0.0000
vt 0.7697 0.0785 0.0000
vt 0.7690 0.0792 0.0000
vt 0.7580 0.0288 0.0000
vt 0.9274 0.9161 0.0000
vt 0.9075 0.8518 0.0000
vt 0.9249 0.9163 0.0000
vt 0.9054 0.8519 0.0000
vt 0.8876 0.8574 0.0000
vt 0.8875 0.8576 0.0000
vt 0.7364 0.0351 0.0000
vt 0.7459 0.0778 0.0000
vt 0.7460 0.0775 0.0000
vt 0.7566 0.0773 0.0000
vt 0.7464 0.0320 0.0000
vt 0.7476 0.0319 0.0000
vt 0.7578 0.0781 0.0000
vt 0.9024 0.9234 0.0000
vt 0.9504 0.9092 0.0000
vt 0.9519 0.9077 0.0000
vt 0.9026 0.9232 0.0000
# 24 texture coords

o brazoDipper_der
g brazoDipper_der
usemtl dipper_New_Project_Material
s 1
f 1/1/1 2/2/1 3/3/2 
f 4/4/3 5/5/4 6/6/5 
f 6/6/5 7/7/6 4/4/3 
f 8/8/7 9/9/7 3/3/8 
f 10/10/9 11/11/10 12/12/11 
f 1/1/12 11/11/10 2/2/13 
f 1/1/12 12/12/11 11/11/10 
f 1/1/14 13/13/15 12/12/14 
f 9/9/16 1/1/16 3/3/2 
f 14/14/17 15/15/18 16/16/19 
f 14/14/17 16/16/19 17/14/20 
f 17/14/21 16/16/22 18/17/23 
f 17/14/21 18/17/23 10/18/9 
f 10/18/9 18/17/24 5/5/25 
f 10/18/9 5/5/25 4/4/26 
f 15/15/27 14/14/28 8/19/29 
f 15/15/30 8/19/29 19/20/31 
f 19/20/32 8/19/33 7/7/34 
f 19/20/35 7/7/34 6/6/36 
f 14/21/28 13/13/37 9/9/38 
f 14/21/28 9/9/38 8/8/29 
f 8/8/33 3/3/8 7/22/34 
f 7/22/39 3/3/39 2/2/40 
f 7/22/6 2/2/40 4/23/3 
f 4/23/41 2/2/41 11/11/10 
f 4/23/26 11/11/10 10/10/9 
f 10/10/9 12/12/11 17/24/21 
f 17/24/42 12/12/42 13/13/15 
f 17/24/20 13/13/15 14/21/43 
# 0 polygons - 29 triangles

