# 3ds Max Wavefront OBJ Exporter v0.99 - (c)2007 guruware
# File Created: 04.11.2024 20:41:26

mtllib brazoDipper_izq.mtl

#
# object brazoDipper_izq
#

v  0.0322 -0.0271 -0.0594
v  -0.0049 -0.0267 -0.0627
v  0.0102 0.0204 -0.0188
v  0.0270 -0.0211 0.0195
v  0.0306 -0.1537 0.0293
v  0.0518 -0.0239 -0.0214
v  0.0560 -0.1566 -0.0125
v  0.0360 -0.1598 -0.0514
v  -0.0020 -0.1595 -0.0548
v  -0.0240 -0.0246 -0.0180
v  -0.0141 -0.0219 0.0189
v  -0.0114 -0.1546 0.0286
v  0.0000 -0.3808 -0.0475
v  0.0383 -0.3818 -0.0438
v  0.0325 -0.3712 0.0372
v  -0.0099 -0.3712 0.0363
v  -0.0200 -0.3757 -0.0016
v  -0.0216 -0.1573 -0.0091
v  0.0583 -0.3768 -0.0046
# 19 vertices

vn -0.6679 0.0724 -0.7407
vn -0.6966 0.3892 -0.6027
vn -0.0613 0.8550 0.5150
vn -0.0497 0.8552 0.5159
vn -0.2591 0.8334 0.4882
vn 0.0024 0.8899 -0.4562
vn 0.0039 0.8899 -0.4561
vn 0.0574 0.0877 -0.9945
vn 0.0494 0.0878 -0.9949
vn 0.0409 0.0903 -0.9951
vn 0.0435 -0.9189 -0.3920
vn 0.0435 -0.9190 -0.3919
vn -0.1665 -0.9034 -0.3952
vn -0.3940 -0.0230 0.9188
vn -0.0604 -0.0170 0.9980
vn -0.2865 -0.0213 0.9578
vn -0.0482 -0.0185 0.9987
vn -0.5639 -0.7490 -0.3479
vn -0.6018 -0.7933 -0.0925
vn -0.3152 -0.9214 0.2271
vn -0.6719 -0.0262 0.7401
vn -0.6416 0.6592 -0.3922
vn -0.6227 0.6871 0.3744
vn 0.0452 0.0947 -0.9945
vn 0.0343 0.0444 -0.9984
vn -0.0413 -0.0218 0.9989
vn -0.0449 0.0047 0.9990
vn -0.0118 -0.9664 0.2569
vn -0.0013 -0.9655 0.2603
vn -0.0230 -0.9531 0.3019
vn 0.0148 -0.9974 -0.0703
vn 0.0240 -0.9172 -0.3978
vn 0.0025 -0.9412 -0.3377
vn 0.0212 -0.9193 -0.3931
vn 0.0393 0.8923 -0.4498
vn 0.0066 0.8906 -0.4547
vn 0.0262 0.8649 -0.5013
vn -0.0115 0.8515 0.5243
vn -0.0271 0.8537 0.5200
vn -0.0020 0.8414 0.5404
vn -0.0264 0.8553 0.5175
vn 0.0004 -0.9652 0.2616
# 42 vertex normals

vt 0.8562 0.8575 0.0000
vt 0.8574 0.8563 0.0000
vt 0.8282 0.8421 0.0000
vt 0.8178 0.8688 0.0000
vt 0.8327 0.9346 0.0000
vt 0.8378 0.8630 0.0000
vt 0.8577 0.9274 0.0000
vt 0.8807 0.9204 0.0000
vt 0.8822 0.9190 0.0000
vt 0.8357 0.8632 0.0000
vt 0.8179 0.8687 0.0000
vt 0.8329 0.9344 0.0000
vt 0.7697 0.0785 0.0000
vt 0.7586 0.0281 0.0000
vt 0.7690 0.0792 0.0000
vt 0.7459 0.0778 0.0000
vt 0.7364 0.0351 0.0000
vt 0.7460 0.0775 0.0000
vt 0.7566 0.0773 0.0000
vt 0.7464 0.0320 0.0000
vt 0.7580 0.0288 0.0000
vt 0.7578 0.0781 0.0000
vt 0.7476 0.0319 0.0000
vt 0.8552 0.9276 0.0000
# 24 texture coords

o brazoDipper_izq
g brazoDipper_izq
usemtl dipper_New_Project_Material
s 1
f 1/1/1 2/2/1 3/3/2 
f 4/4/3 5/5/4 6/6/5 
f 6/6/5 5/5/4 7/7/3 
f 6/6/6 7/7/7 1/1/6 
f 1/1/6 7/7/7 8/8/6 
f 1/1/8 8/8/9 2/2/8 
f 2/2/8 8/8/9 9/9/10 
f 2/2/11 9/9/12 10/10/13 
f 11/11/14 12/12/15 4/4/16 
f 4/4/16 12/12/15 5/5/17 
f 2/2/18 10/10/13 3/3/19 
f 10/10/20 11/11/20 3/3/19 
f 11/11/14 4/4/16 3/3/21 
f 6/6/22 1/1/22 3/3/2 
f 6/6/5 3/3/23 4/4/23 
f 13/13/24 9/14/10 14/15/25 
f 15/16/26 5/17/17 16/18/27 
f 16/18/27 5/17/17 12/17/15 
f 16/18/28 12/17/29 17/19/30 
f 17/19/30 12/17/29 18/20/31 
f 17/19/32 18/20/31 13/13/33 
f 13/13/34 18/20/31 9/14/34 
f 14/15/25 9/14/10 8/21/9 
f 14/15/35 8/21/36 19/22/37 
f 19/22/37 8/21/36 7/23/7 
f 19/22/38 7/23/39 15/16/40 
f 15/16/41 7/23/39 5/17/4 
f 10/10/13 9/9/12 18/24/31 
f 10/10/20 18/24/31 11/11/20 
f 11/11/42 18/24/31 12/12/29 
# 0 polygons - 30 triangles

