# 3ds Max Wavefront OBJ Exporter v0.99 - (c)2007 guruware
# File Created: 04.10.2024 23:16:15

mtllib Dado8Caras.mtl

#
# object Pyramid001
#

v  0.0000 6.4433 -0.0000
v  -4.8647 0.0000 4.9689
v  4.8647 0.0000 4.9689
v  4.8647 0.0000 -4.9689
v  -4.8647 0.0000 -4.9689
v  0.0000 0.0000 -0.0000
# 6 vertices

vn 0.0000 1.0000 -0.0000
vn -0.6824 -0.2784 0.6758
vn 0.6824 -0.2784 0.6758
vn 0.6824 -0.2784 -0.6758
vn -0.6824 -0.2784 -0.6758
vn 0.0000 -1.0000 -0.0000
# 6 vertex normals

vt 0.7270 -0.0040 0.0000
vt 0.4854 0.2536 0.0000
vt 0.9632 0.2462 0.0000
vt 0.0233 0.2520 0.0000
vt 0.4850 0.2533 0.0000
vt 0.2572 0.4968 0.0000
vt 0.0113 0.7464 0.0000
vt 0.2576 0.4970 0.0000
vt 0.4928 0.7435 0.0000
vt 0.7324 0.9861 0.0000
vt 0.4946 0.7440 0.0000
vt 0.9690 0.7421 0.0000
vt -2.5809 2.7889 0.0000
vt -6.5342 4.2905 0.0000
vt -2.4294 3.0184 0.0000
vt -2.4294 2.0184 0.0000
vt -2.5809 1.7889 0.0000
# 17 texture coords

o Pyramid001
g Pyramid001
usemtl 01___Default
s 4
f 1/1/1 2/2/2 3/3/3 
s 2
f 1/4/1 3/5/3 4/6/4 
s 16
f 1/7/1 4/8/4 5/9/5 
s 32
f 1/10/1 5/11/5 2/12/2 
s 8
f 2/13/2 6/14/6 3/15/3 
f 3/15/3 6/14/6 4/16/4 
f 4/16/4 6/14/6 5/17/5 
f 5/17/5 6/14/6 2/13/2 
# 0 polygons - 8 triangles

#
# object Pyramid002
#

v  0.0000 -6.4433 -0.0000
v  -4.8647 0.0000 -4.9689
v  4.8647 0.0000 -4.9689
v  4.8647 -0.0000 4.9689
v  -4.8647 -0.0000 4.9689
v  0.0000 0.0000 -0.0000
# 6 vertices

vn 0.0000 -1.0000 -0.0000
vn -0.6824 0.2784 -0.6758
vn 0.6824 0.2784 -0.6758
vn 0.6824 0.2784 0.6758
vn -0.6824 0.2784 0.6758
vn 0.0000 1.0000 0.0000
# 6 vertex normals

vt 0.2575 0.4970 0.0000
vt 0.7289 0.4951 0.0000
vt 0.4930 0.7435 0.0000
vt 0.2575 0.4969 0.0000
vt 0.4851 0.2533 0.0000
vt 0.4856 0.2536 0.0000
vt 0.9643 0.2466 0.0000
vt 0.7272 0.4956 0.0000
vt 0.9706 0.7426 0.0000
vt 0.4933 0.7433 0.0000
vt -2.5159 1.5785 0.0000
vt -5.5801 1.5413 0.0000
vt -2.5643 1.4628 0.0000
vt -2.5643 0.4628 0.0000
vt -2.5159 0.5785 0.0000
# 15 texture coords

o Pyramid002
g Pyramid002
usemtl 01___Default
s 4
f 7/18/7 8/19/8 9/20/9 
s 2
f 7/19/7 9/21/9 10/22/10 
s 16
f 7/19/7 10/23/10 11/24/11 
s 32
f 7/25/7 11/26/11 8/27/8 
s 8
f 8/28/8 12/29/12 9/30/9 
f 9/30/9 12/29/12 10/31/10 
f 10/31/10 12/29/12 11/32/11 
f 11/32/11 12/29/12 8/28/8 
# 0 polygons - 8 triangles

