# 3ds Max Wavefront OBJ Exporter v0.99 - (c)2007 guruware
# File Created: 04.11.2024 20:37:04

mtllib musloDipper_izq.mtl

#
# object musloDipper_izq
#

v  0.0563 0.0436 -0.0292
v  0.0322 -0.0162 0.0749
v  0.0570 -0.0306 0.0004
v  0.0286 -0.0983 0.0975
v  -0.1012 -0.0610 0.0603
v  -0.0872 -0.1169 0.0774
v  -0.0685 -0.0148 0.1027
v  -0.0562 -0.1886 0.0601
v  -0.0610 -0.1205 0.0603
v  -0.0478 -0.1907 0.0171
v  0.0485 -0.1140 0.0211
v  0.0068 -0.1093 0.0718
v  0.0184 -0.1198 0.0273
v  -0.0161 -0.1354 -0.0365
v  -0.0194 -0.1332 -0.0060
v  -0.0738 -0.1327 0.0039
v  -0.0531 -0.1310 0.0176
v  -0.0425 0.0309 0.0891
v  0.0343 0.0341 0.0580
v  -0.0179 0.0603 -0.1230
v  -0.0449 -0.0456 -0.0708
v  -0.0878 -0.0761 -0.0088
v  -0.0442 -0.0995 0.1288
v  -0.0136 -0.1903 -0.0059
v  0.0238 -0.1864 0.0289
v  0.0116 -0.1844 0.0736
v  -0.0314 -0.1856 0.0910
v  -0.0358 -0.1095 0.0901
# 28 vertices

vn 0.9589 0.0843 0.2709
vn 0.9563 0.0709 0.2836
vn 0.9568 0.0453 0.2872
vn 0.9588 0.0048 0.2839
vn -0.7874 -0.0091 0.6164
vn -0.7758 -0.0148 0.6308
vn -0.9812 0.0109 -0.1929
vn -0.9817 -0.0772 -0.1739
vn -0.9829 -0.0349 -0.1809
vn 0.2125 -0.9527 0.2174
vn 0.2352 -0.9306 0.2806
vn 0.2347 -0.9574 0.1681
vn 0.1580 -0.9825 0.0989
vn 0.0914 -0.9913 0.0943
vn 0.0080 -0.9958 0.0916
vn -0.0052 -0.9827 0.1849
vn 0.3542 -0.0599 0.9332
vn 0.3056 0.2030 0.9303
vn 0.3185 0.1813 0.9304
vn 0.2565 0.3240 0.9106
vn 0.9676 0.0424 0.2489
vn 0.7384 -0.2447 -0.6284
vn 0.6294 -0.3282 -0.7044
vn 0.5465 -0.4119 -0.7292
vn 0.5690 -0.2887 -0.7700
vn -0.5545 -0.3102 -0.7722
vn -0.5892 -0.3798 -0.7131
vn -0.9558 -0.2654 -0.1264
vn -0.9554 -0.2696 -0.1208
vn 0.3189 0.2919 0.9017
vn 0.3811 0.2308 0.8953
vn 0.9654 -0.0345 0.2585
vn 0.6314 -0.1578 -0.7593
vn 0.6762 -0.0626 -0.7340
vn -0.9549 -0.2738 -0.1152
vn -0.7640 -0.0204 0.6449
vn -0.6183 -0.4458 -0.6473
vn 0.6819 0.1166 -0.7221
vn 0.6651 0.0506 -0.7450
vn 0.6662 0.0791 -0.7416
vn 0.6546 0.0354 -0.7552
vn 0.9642 -0.0105 0.2651
vn 0.9655 0.0759 0.2490
vn 0.9664 0.0314 0.2553
vn 0.9689 0.0676 0.2379
vn 0.3704 -0.0990 0.9236
vn 0.3845 0.0395 0.9223
vn 0.3829 -0.0314 0.9233
vn 0.3950 0.0332 0.9181
vn -0.7807 -0.0857 0.6190
vn -0.7650 -0.0465 0.6423
vn -0.7727 -0.0786 0.6299
vn -0.7532 -0.0546 0.6555
vn -0.9834 -0.0865 -0.1594
vn -0.5532 0.1070 -0.8261
vn -0.5652 -0.0513 -0.8233
vn -0.5565 0.0688 -0.8280
vn -0.5739 -0.0597 -0.8167
vn -0.0506 -0.9782 0.2015
vn -0.0135 -0.9750 0.2219
vn 0.0580 -0.9628 0.2639
vn 0.0506 -0.9584 0.2808
vn 0.0752 -0.9586 0.2748
vn 0.1221 -0.9525 0.2791
vn 0.1348 -0.9520 0.2747
vn 0.1332 -0.9495 0.2842
vn 0.1611 -0.9493 0.2699
vn 0.1904 -0.9505 0.2455
# 68 vertex normals

vt 0.6896 0.8739 0.0000
vt 0.6352 0.9051 0.0000
vt 0.6741 0.9126 0.0000
vt 0.6233 0.9480 0.0000
vt 0.6428 0.9285 0.0000
vt 0.6339 0.9578 0.0000
vt 0.6206 0.9044 0.0000
vt 0.5121 0.6444 0.0000
vt 0.5833 0.6506 0.0000
vt 0.5059 0.6892 0.0000
vt 0.6711 0.8122 0.0000
vt 0.6473 0.8257 0.0000
vt 0.6668 0.8244 0.0000
vt 0.6912 0.8432 0.0000
vt 0.6784 0.8426 0.0000
vt 0.6706 0.8641 0.0000
vt 0.6664 0.8547 0.0000
vt 0.6277 0.8805 0.0000
vt 0.6440 0.8788 0.0000
vt 0.7387 0.8651 0.0000
vt 0.7114 0.9205 0.0000
vt 0.6935 0.9675 0.0000
vt 0.6723 0.9661 0.0000
vt 0.6790 0.9365 0.0000
vt 0.6070 0.9487 0.0000
vt 0.6633 0.9563 0.0000
vt 0.5041 0.7132 0.0000
vt 0.5637 0.7187 0.0000
vt 0.5115 0.6772 0.0000
vt 0.5809 0.6852 0.0000
vt 0.5178 0.6307 0.0000
vt 0.5961 0.6397 0.0000
vt 0.5182 0.6124 0.0000
vt 0.5976 0.6205 0.0000
vt 0.5683 0.6943 0.0000
vt 0.6388 0.8641 0.0000
vt 0.6479 0.8547 0.0000
vt 0.6199 0.8424 0.0000
vt 0.6369 0.8420 0.0000
vt 0.6376 0.8146 0.0000
# 40 texture coords

o musloDipper_izq
g musloDipper_izq
usemtl dipper_New_Project_Material
s 1
f 1/1/1 2/2/2 3/3/3 
f 2/2/2 4/4/4 3/3/3 
f 5/5/5 6/6/6 7/7/5 
f 8/8/7 9/9/8 10/10/9 
f 11/11/10 12/12/11 13/13/12 
f 11/11/10 13/13/12 14/14/13 
f 14/14/13 13/13/12 15/15/14 
f 14/14/13 15/15/14 16/16/15 
f 16/16/15 15/15/14 17/17/16 
f 18/18/17 7/7/18 19/19/19 
f 19/19/19 7/7/18 2/2/20 
f 19/19/21 2/2/2 1/1/1 
f 1/1/22 3/3/23 20/20/24 
f 20/20/24 3/3/23 21/21/25 
f 14/22/26 16/23/26 22/24/27 
f 22/24/28 16/23/29 5/5/28 
f 7/7/18 23/25/30 2/2/20 
f 2/2/31 23/25/30 4/4/31 
f 3/3/3 4/4/4 11/26/32 
f 3/3/23 11/26/33 21/21/25 
f 21/21/25 11/26/33 14/22/34 
f 5/5/35 16/23/29 6/6/35 
f 7/7/36 6/6/6 23/25/36 
f 22/24/27 21/21/37 14/22/37 
f 24/27/38 15/28/39 25/29/40 
f 25/29/40 15/28/39 13/30/41 
f 25/29/42 13/30/43 26/31/44 
f 26/31/44 13/30/43 12/32/45 
f 26/31/46 12/32/47 27/33/48 
f 27/33/48 12/32/47 28/34/49 
f 27/33/50 28/34/51 8/8/52 
f 8/8/53 28/34/51 9/9/53 
f 10/10/9 9/9/8 17/35/54 
f 10/10/55 17/35/56 24/27/57 
f 24/27/58 17/35/56 15/28/58 
f 16/16/59 17/17/16 6/36/60 
f 6/36/60 17/17/16 9/37/61 
f 6/36/62 9/37/61 23/38/63 
f 23/38/63 9/37/61 28/39/64 
f 23/38/65 28/39/64 4/40/66 
f 4/40/66 28/39/64 12/12/67 
f 4/40/68 12/12/67 11/11/10 
# 0 polygons - 42 triangles

