# 3ds Max Wavefront OBJ Exporter v0.99 - (c)2007 guruware
# File Created: 04.11.2024 20:36:04

mtllib piernaDipper_der.mtl

#
# object piernaDipper_der
#

v  -0.0681 -0.1730 0.0132
v  -0.0651 -0.2101 -0.0039
v  -0.0650 -0.2084 0.0221
v  -0.0718 -0.1774 0.0304
v  -0.0287 -0.1810 0.0500
v  -0.0283 -0.1310 0.0559
v  -0.0663 -0.1439 0.0450
v  0.0098 -0.1488 0.0548
v  -0.0243 -0.1218 0.0430
v  0.0158 -0.1415 0.0323
v  0.0266 -0.1755 0.0210
v  -0.0318 -0.2215 -0.0347
v  0.0069 -0.2220 -0.0181
v  -0.0426 -0.1092 0.0071
v  0.0007 -0.1113 0.0235
v  -0.0442 0.0370 0.0333
v  -0.0012 0.0358 0.0507
v  0.0208 -0.2180 -0.0941
v  -0.0101 -0.2171 -0.1165
v  0.0162 -0.1001 -0.0517
v  -0.0183 -0.0971 -0.0740
v  0.0152 0.0307 -0.0232
v  -0.0190 0.0311 -0.0462
v  -0.0564 0.0350 -0.0114
v  -0.0555 -0.1027 -0.0378
v  -0.0433 -0.2192 -0.0800
v  0.0236 0.0328 0.0198
v  0.0252 -0.1064 -0.0084
v  0.0288 -0.2201 -0.0503
v  0.0482 -0.2674 0.1628
v  -0.0027 -0.2674 0.2847
v  0.0482 -0.2999 0.1628
v  -0.0027 -0.2999 0.2847
v  -0.1394 -0.2999 0.2584
v  -0.0824 -0.2999 0.3245
v  -0.0337 -0.2674 -0.1520
v  -0.0319 -0.2139 -0.1262
v  0.0316 -0.2139 -0.1174
v  0.0482 -0.2674 -0.1407
v  0.0569 -0.2674 0.0077
v  0.0272 -0.2103 0.0110
v  0.0222 -0.1828 0.0445
v  0.0181 -0.2085 0.0358
v  -0.0622 -0.1382 0.0317
v  -0.0777 -0.2333 0.2855
v  -0.0275 -0.2153 0.2404
v  -0.0977 -0.2143 0.2238
v  0.0093 -0.2013 0.1392
v  -0.0926 -0.2019 0.1214
v  -0.0961 -0.2674 -0.0183
v  -0.1369 -0.2999 0.1297
v  -0.0828 -0.2674 0.3245
v  -0.1394 -0.2674 0.2584
v  -0.1369 -0.2674 0.1297
v  -0.0337 -0.2999 -0.1520
v  0.0482 -0.2999 -0.1407
# 56 vertices

vn -0.9918 0.0026 -0.1275
vn -0.9445 0.3158 -0.0906
vn -0.9863 -0.1161 -0.1168
vn -0.3282 -0.2709 0.9049
vn -0.1392 -0.3040 0.9424
vn -0.1971 -0.2035 0.9590
vn -0.1345 -0.3771 0.9164
vn -0.0242 -0.1165 0.9929
vn -0.1237 0.2744 -0.9536
vn -0.1184 0.2792 -0.9529
vn -0.3722 -0.3551 0.8576
vn -0.3601 -0.3512 0.8643
vn -0.3607 -0.2914 0.8860
vn -0.3611 -0.2303 0.9036
vn -0.3704 -0.0990 0.9236
vn -0.3829 -0.0314 0.9233
vn 0.5672 0.2980 -0.7678
vn 0.5506 0.3065 -0.7764
vn 0.5496 0.2656 -0.7921
vn 0.5438 0.2261 -0.8082
vn 0.5532 0.1070 -0.8261
vn 0.5634 0.0259 -0.8258
vn -0.6662 0.0791 -0.7416
vn -0.6844 0.1419 -0.7151
vn -0.6900 0.1536 -0.7073
vn -0.7123 0.1689 -0.6812
vn -0.7173 0.1794 -0.6732
vn -0.7336 0.1818 -0.6549
vn 0.7664 -0.0706 0.6385
vn 0.7806 -0.0857 0.6191
vn 0.7861 -0.1359 0.6030
vn 0.8035 -0.1499 0.5761
vn 0.8064 -0.1748 0.5649
vn 0.8202 -0.1605 0.5491
vn 0.9753 -0.1611 0.1511
vn 0.9228 0.0000 0.3852
vn 0.9653 -0.0000 0.2613
vn 0.0000 -1.0000 0.0000
vn 0.0001 -1.0000 -0.0005
vn 0.0001 -1.0000 -0.0003
vn 0.0002 -1.0000 -0.0010
vn 0.1232 0.4280 -0.8954
vn 0.1348 0.1458 -0.9801
vn 0.9461 0.3191 -0.0555
vn 0.9200 0.3914 -0.0193
vn 0.9491 0.3111 0.0487
vn 0.9522 -0.1494 0.2666
vn 0.9580 0.1422 0.2489
vn 0.9633 -0.0120 0.2681
vn 0.8980 -0.2638 0.3521
vn 0.9312 0.1938 0.3087
vn 0.9319 0.2273 0.2826
vn 0.4762 0.6421 0.6008
vn 0.4445 0.7463 0.4954
vn 0.4026 0.8334 0.3787
vn -0.9573 0.2379 -0.1640
vn -0.9606 0.2380 -0.1435
vn 0.0652 0.4595 -0.8858
vn 0.1090 0.4317 -0.8954
vn -0.4244 0.8380 0.3431
vn -0.4431 0.8639 0.2396
vn -0.4008 0.8022 0.4425
vn -0.9537 0.2377 -0.1845
vn -0.2775 -0.4807 0.8318
vn -0.9599 -0.1447 -0.2400
vn 0.0954 -0.2550 0.9622
vn 0.0899 -0.3349 0.9380
vn -0.0193 -0.4871 0.8731
vn 0.1369 0.8573 0.4962
vn 0.0860 0.9216 0.3785
vn -0.0348 0.9816 0.1879
vn -0.0125 0.9981 0.0603
vn -0.0032 1.0000 -0.0044
vn 0.0085 0.9978 -0.0657
vn 0.0108 0.9980 -0.0627
vn 0.8576 0.4859 0.1684
vn 0.8802 0.4491 0.1532
vn 0.0067 0.9996 -0.0278
vn 0.0054 0.9996 -0.0289
vn 0.0041 0.9995 -0.0300
vn -0.8670 0.3728 -0.3307
vn -0.9321 0.2165 -0.2904
vn -0.9002 0.1144 -0.4203
vn -0.9549 -0.1842 0.2330
vn -0.9534 -0.1838 0.2394
vn -0.9604 -0.0998 0.2602
vn -0.9620 -0.0578 0.2670
vn -0.9620 -0.0578 0.2667
vn -0.9664 0.0314 0.2553
vn 0.9799 0.0958 -0.1751
vn 0.9783 0.1005 -0.1811
vn 0.9789 0.0686 -0.1923
vn 0.9793 0.0508 -0.1957
vn 0.9796 0.0503 -0.1948
vn 0.9829 -0.0349 -0.1809
vn -0.6262 0.6471 0.4350
vn -0.7122 0.5714 0.4078
vn -0.6897 0.6552 0.3081
vn -0.7361 0.6566 0.1646
vn -0.8140 0.5752 -0.0806
vn -0.9471 0.2885 -0.1405
vn -0.8335 0.5257 -0.1701
vn -0.9070 -0.1840 -0.3787
vn 0.1151 0.4241 -0.8983
vn 0.1362 -0.0000 -0.9907
vn 0.9983 -0.0000 -0.0586
vn -0.7573 0.0000 0.6530
vn -0.7583 -0.0040 0.6519
vn -0.7592 -0.0080 0.6508
vn 0.4453 0.0038 0.8954
vn 0.4466 0.0075 0.8947
vn 0.4441 0.0000 0.8960
vn 0.0088 0.3443 -0.9388
vn 0.1465 0.4105 -0.9000
vn 0.3206 0.6911 0.6477
vn 0.4744 0.6880 0.5491
vn -0.9705 -0.1235 -0.2073
vn 0.9707 -0.2389 0.0256
vn 0.8846 -0.4638 0.0497
vn 0.7477 0.5646 0.3497
vn 0.7405 0.5866 0.3279
vn 0.8256 0.5450 0.1462
vn 0.8555 0.5165 0.0362
vn 0.8438 0.5345 0.0474
vn -0.9998 -0.0000 -0.0195
vn 0.7326 0.6081 0.3058
# 126 vertex normals

vt 0.5010 0.8678 0.0000
vt 0.5001 0.8626 0.0000
vt 0.5000 0.8704 0.0000
vt 0.5021 0.8729 0.0000
vt 0.4892 0.8788 0.0000
vt 0.4891 0.8805 0.0000
vt 0.5004 0.8773 0.0000
vt 0.4777 0.8802 0.0000
vt 0.4879 0.8767 0.0000
vt 0.4759 0.8735 0.0000
vt 0.4727 0.8701 0.0000
vt 0.2412 0.6772 0.0000
vt 0.2422 0.6598 0.0000
vt 0.3625 0.6442 0.0000
vt 0.3618 0.6268 0.0000
vt 0.5178 0.6307 0.0000
vt 0.5182 0.6124 0.0000
vt 0.2392 0.7396 0.0000
vt 0.2380 0.7631 0.0000
vt 0.3664 0.7065 0.0000
vt 0.3675 0.7301 0.0000
vt 0.5059 0.6892 0.0000
vt 0.5041 0.7132 0.0000
vt 0.5115 0.6772 0.0000
vt 0.3650 0.6917 0.0000
vt 0.2392 0.7247 0.0000
vt 0.5121 0.6444 0.0000
vt 0.3639 0.6606 0.0000
vt 0.2411 0.6936 0.0000
vt 0.2731 0.1766 0.0000
vt 0.2380 0.1668 0.0000
vt 0.2735 0.1679 0.0000
vt 0.2441 0.1589 0.0000
vt 0.2416 0.1310 0.0000
vt 0.2330 0.1452 0.0000
vt 0.4907 0.8183 0.0000
vt 0.4902 0.8261 0.0000
vt 0.4712 0.8287 0.0000
vt 0.4662 0.8217 0.0000
vt 0.4636 0.8661 0.0000
vt 0.4725 0.8671 0.0000
vt 0.4740 0.8771 0.0000
vt 0.4752 0.8745 0.0000
vt 0.4992 0.8733 0.0000
vt 0.5039 0.9492 0.0000
vt 0.4888 0.9358 0.0000
vt 0.5099 0.9308 0.0000
vt 0.4778 0.9055 0.0000
vt 0.5083 0.9001 0.0000
vt 0.5094 0.8583 0.0000
vt 0.2700 0.1221 0.0000
vt 0.5054 0.9609 0.0000
vt 0.5223 0.9411 0.0000
vt 0.5216 0.9026 0.0000
vt 0.3447 0.1268 0.0000
vt 0.3082 0.1218 0.0000
vt 0.3096 0.1135 0.0000
vt 0.4866 0.8677 0.0000
vt 0.3380 0.1327 0.0000
vt 0.3513 0.1514 0.0000
vt 0.3406 0.1473 0.0000
vt 0.3146 0.1702 0.0000
vt 0.2366 0.1248 0.0000
vt 0.2239 0.1447 0.0000
vt 0.4814 0.9490 0.0000
vt 0.2684 0.1135 0.0000
vt 0.3120 0.1621 0.0000
vt 0.4662 0.9125 0.0000
# 68 texture coords

o piernaDipper_der
g piernaDipper_der
usemtl dipper_New_Project_Material
s 1
f 1/1/1 2/2/2 3/3/3 
f 4/4/4 5/5/5 6/6/6 
f 4/4/4 6/6/6 7/7/7 
f 5/5/5 8/8/8 6/6/6 
f 9/9/9 10/10/10 11/11/9 
f 12/12/11 13/13/12 14/14/13 
f 14/14/13 13/13/12 15/15/14 
f 14/14/13 15/15/14 16/16/15 
f 16/16/15 15/15/14 17/17/16 
f 18/18/17 19/19/18 20/20/19 
f 20/20/19 19/19/18 21/21/20 
f 20/20/19 21/21/20 22/22/21 
f 22/22/21 21/21/20 23/23/22 
f 24/24/23 23/23/24 25/25/25 
f 25/25/25 23/23/24 21/21/26 
f 25/25/25 21/21/26 26/26/27 
f 26/26/27 21/21/26 19/19/28 
f 27/27/29 17/17/30 28/28/31 
f 28/28/31 17/17/30 15/15/32 
f 28/28/31 15/15/32 29/29/33 
f 29/29/33 15/15/32 13/13/34 
f 30/30/35 31/31/36 32/32/37 
f 32/32/37 31/31/36 33/33/36 
f 32/32/38 33/33/39 34/34/40 
f 34/34/40 33/33/39 35/35/41 
f 36/36/42 37/37/42 38/38/42 
f 36/36/42 38/38/42 39/39/43 
f 39/39/44 38/38/45 40/40/46 
f 41/41/47 11/11/48 42/42/49 
f 41/41/47 42/42/49 43/43/50 
f 11/11/48 10/10/51 8/8/52 
f 11/11/48 8/8/52 42/42/49 
f 10/10/53 9/9/53 6/6/54 
f 10/10/55 6/6/54 8/8/55 
f 1/1/1 4/4/56 44/44/57 
f 1/1/58 44/44/58 9/9/59 
f 9/9/60 44/44/61 7/7/60 
f 9/9/60 7/7/60 6/6/62 
f 44/44/63 4/4/56 7/7/63 
f 3/3/64 5/5/5 4/4/4 
f 3/3/3 4/4/65 1/1/1 
f 42/42/66 8/8/66 5/5/5 
f 42/42/67 5/5/5 43/43/68 
f 45/45/69 46/46/70 47/47/71 
f 47/47/71 46/46/70 48/48/72 
f 47/47/71 48/48/72 49/49/73 
f 49/49/73 48/48/72 43/43/74 
f 49/49/73 43/43/74 3/3/75 
f 3/3/64 43/43/68 5/5/5 
f 43/43/76 40/40/46 41/41/77 
f 41/41/77 40/40/46 38/38/45 
f 41/41/78 38/38/79 2/2/79 
f 2/2/79 38/38/79 37/37/80 
f 2/2/2 37/37/81 50/50/82 
f 50/50/82 37/37/81 36/36/83 
f 26/26/84 12/12/85 25/25/85 
f 25/25/85 12/12/85 14/14/86 
f 25/25/87 14/14/86 24/24/88 
f 24/24/88 14/14/86 16/16/89 
f 29/29/90 18/18/91 28/28/91 
f 28/28/91 18/18/91 20/20/92 
f 28/28/93 20/20/92 27/27/94 
f 27/27/94 20/20/92 22/22/95 
f 51/51/38 32/32/38 34/34/40 
f 52/52/96 45/45/97 47/47/98 
f 52/52/96 47/47/98 53/53/99 
f 53/53/99 47/47/98 49/49/100 
f 53/53/99 49/49/100 54/54/101 
f 54/54/101 49/49/100 3/3/102 
f 54/54/101 3/3/102 50/50/82 
f 50/50/82 3/3/102 2/2/2 
f 36/55/83 55/56/103 50/57/82 
f 1/1/104 9/58/59 2/2/104 
f 55/59/105 36/55/105 39/60/43 
f 55/59/105 39/60/43 56/61/105 
f 56/61/106 39/60/106 40/62/46 
f 34/34/107 35/35/108 53/63/108 
f 53/63/108 35/35/108 52/64/109 
f 52/64/110 35/35/111 33/33/110 
f 52/64/110 33/33/110 31/31/112 
f 9/58/9 11/11/9 41/41/113 
f 9/58/59 41/41/113 2/2/114 
f 52/52/115 31/65/116 45/45/115 
f 45/45/69 31/65/116 46/46/70 
f 54/66/101 50/57/82 51/51/117 
f 51/51/117 50/57/82 55/56/103 
f 51/51/38 55/56/38 32/32/38 
f 32/32/38 55/56/38 56/67/38 
f 32/32/37 56/67/118 30/30/35 
f 30/30/35 56/67/118 40/62/119 
f 48/48/120 46/46/121 30/68/122 
f 48/48/123 30/68/122 43/43/123 
f 43/43/76 30/68/122 40/40/124 
f 51/51/117 34/34/125 54/66/101 
f 54/66/101 34/34/125 53/63/125 
f 46/46/121 31/65/116 30/68/126 
# 0 polygons - 96 triangles

